<svg width="30" height="30" viewBox="0 0 30 30" fill="none" xmlns="http://www.w3.org/2000/svg">
<g clip-path="url(#clip0_405_605)">
<path d="M8.2375 -3.17519C11.1625 -5.43769 14.3375 -2.67519 15.05 1.62481C15.5875 1.62481 16.1125 1.77481 16.5875 2.04981C17.2375 1.29981 17.8125 0.274808 17.5875 -0.875192C17.0625 -3.56269 20.075 -5.73769 22.9375 -2.02519C25.2 0.899808 22.4375 4.07481 18.125 4.78731C18.125 5.32481 17.9875 5.86231 17.7 6.33731C18.45 6.97481 19.475 7.54981 20.625 7.32481C23.2875 6.79981 25.475 9.79981 21.7625 12.6748C18.8375 14.9373 15.6625 12.1748 14.95 7.87481C14.4125 7.87481 13.8875 7.71231 13.425 7.43731C12.775 8.18731 12.1875 9.22481 12.4125 10.3748C12.9375 13.0498 9.925 15.2373 7.0625 11.5248C4.7875 8.58731 7.5625 5.41231 11.875 4.71231C11.875 4.17481 12.0375 3.64981 12.3125 3.17481C11.5625 2.53731 10.5375 1.94981 9.375 2.17481C6.7125 2.69981 4.525 -0.300192 8.2375 -3.17519ZM6.25 15.9998H8.75C9.41304 15.9998 10.0489 16.2632 10.5178 16.732C10.9866 17.2009 11.25 17.8368 11.25 18.4998V25.9998H8.75V23.4998H6.25V25.9998H3.75V18.4998C3.75 17.8368 4.01339 17.2009 4.48223 16.732C4.95107 16.2632 5.58696 15.9998 6.25 15.9998ZM6.25 18.4998V20.9998H8.75V18.4998H6.25ZM16.1625 15.9998H18.75L15.0875 25.9998H12.5L16.1625 15.9998ZM22.5 15.9998H26.25V18.4998H22.5V23.4998H26.25V25.9998H22.5C21.837 25.9998 21.2011 25.7364 20.7322 25.2676C20.2634 24.7987 20 24.1628 20 23.4998V18.4998C20 17.8368 20.2634 17.2009 20.7322 16.732C21.2011 16.2632 21.837 15.9998 22.5 15.9998Z" fill="#20173C"/>
</g>
<defs>
<clipPath id="clip0_405_605">
<rect width="30" height="30" fill="white"/>
</clipPath>
</defs>
</svg>
