<svg width="27" height="27" viewBox="0 0 27 27" fill="none" xmlns="http://www.w3.org/2000/svg">
<g id="icon-park-outline:add-picture">
<g id="Group">
<path id="Vector" d="M24.2437 12.8813C24.3474 12.985 24.4224 13.112 24.4635 13.25H22.7865C22.8276 13.112 22.9026 12.985 23.0063 12.8813C23.1704 12.7172 23.3929 12.625 23.625 12.625C23.8571 12.625 24.0796 12.7172 24.2437 12.8813ZM22.75 13.75H24.5V21.6875H22.75V13.75ZM22.7106 22.1875H24.4878C24.4302 22.7753 24.1707 23.3282 23.7495 23.7495C23.3282 24.1707 22.7753 24.4302 22.1875 24.4878V22.7106C22.3088 22.6714 22.4202 22.6038 22.512 22.512C22.6038 22.4202 22.6714 22.3088 22.7106 22.1875ZM14.1187 3.99372C14.015 4.0974 13.888 4.17238 13.75 4.21353V2.53647C13.888 2.57762 14.015 2.6526 14.1187 2.75628C14.2828 2.92038 14.375 3.14294 14.375 3.375C14.375 3.60706 14.2828 3.82962 14.1187 3.99372ZM4.48798 22.512C4.57976 22.6038 4.69125 22.6714 4.8125 22.7106V24.4878C4.22466 24.4302 3.67181 24.1707 3.25054 23.7495C2.82927 23.3282 2.56982 22.7753 2.51222 22.1875H4.28942C4.32863 22.3088 4.39619 22.4202 4.48798 22.512ZM21.6875 24.5H5.3125V22.75H21.6875V24.5ZM4.48798 4.48798C4.39619 4.57976 4.32863 4.69125 4.28942 4.8125H2.51222C2.56982 4.22466 2.82927 3.67181 3.25054 3.25054C3.67181 2.82927 4.22466 2.56982 4.8125 2.51222V4.28942C4.69125 4.32863 4.57976 4.39619 4.48798 4.48798ZM4.25 5.3125V21.6875H2.5V5.3125H4.25ZM13.25 4.25H5.3125V2.5H13.25V4.25Z" stroke="#3A3153" stroke-width="0.5"/>
<path id="Vector_2" d="M3.375 19.6875L9.38981 14.1739C9.59255 13.9881 9.85631 13.883 10.1313 13.8784C10.4062 13.8738 10.6733 13.9701 10.8821 14.1491L18 20.25M15.75 17.4375L18.4348 14.7527C18.6263 14.5611 18.8805 14.445 19.1507 14.4258C19.421 14.4065 19.6891 14.4855 19.9058 14.6481L23.625 17.4375M16.875 6.75H23.625M20.25 3.375V10.125" stroke="#3A3153" stroke-linecap="round" stroke-linejoin="round"/>
</g>
</g>
</svg>
