<svg width="40" height="40" viewBox="0 0 40 40" fill="none" xmlns="http://www.w3.org/2000/svg">
<g clip-path="url(#clip0_362_569)">
<path d="M34.4444 8.88867H25.5555V11.1109H34.4444V34.4442H25.5555V36.6665H36.6667V11.1109C36.6667 10.5215 36.4325 9.95629 36.0158 9.53955C35.599 9.1228 35.0338 8.88867 34.4444 8.88867Z" fill="#20173C"/>
<path d="M22.0889 3.33301H6.80001C6.17528 3.33301 5.57614 3.58118 5.13438 4.02293C4.69263 4.46469 4.44446 5.06383 4.44446 5.68856V36.6663H24.4445V5.68856C24.4445 5.06383 24.1963 4.46469 23.7545 4.02293C23.3128 3.58118 22.7136 3.33301 22.0889 3.33301ZM22.2222 34.4441H18.8889V31.1108H10V34.4441H6.66668V5.68856C6.66668 5.67105 6.67013 5.65372 6.67683 5.63754C6.68353 5.62136 6.69335 5.60666 6.70573 5.59428C6.71811 5.5819 6.73281 5.57208 6.74899 5.56538C6.76517 5.55868 6.7825 5.55523 6.80001 5.55523H22.0889C22.1064 5.55523 22.1238 5.55868 22.1399 5.56538C22.1561 5.57208 22.1708 5.5819 22.1832 5.59428C22.1956 5.60666 22.2054 5.62136 22.2121 5.63754C22.2188 5.65372 22.2222 5.67105 22.2222 5.68856V34.4441Z" fill="#20173C"/>
<path d="M8.88892 8.88867H11.1111V11.1109H8.88892V8.88867Z" fill="#20173C"/>
<path d="M13.3333 8.88867H15.5555V11.1109H13.3333V8.88867Z" fill="#20173C"/>
<path d="M17.7778 8.88867H20V11.1109H17.7778V8.88867Z" fill="#20173C"/>
<path d="M8.88892 14.4443H11.1111V16.6666H8.88892V14.4443Z" fill="#20173C"/>
<path d="M13.3333 14.4443H15.5555V16.6666H13.3333V14.4443Z" fill="#20173C"/>
<path d="M17.7778 14.4443H20V16.6666H17.7778V14.4443Z" fill="#20173C"/>
<path d="M8.88892 20H11.1111V22.2222H8.88892V20Z" fill="#20173C"/>
<path d="M13.3333 20H15.5555V22.2222H13.3333V20Z" fill="#20173C"/>
<path d="M17.7778 20H20V22.2222H17.7778V20Z" fill="#20173C"/>
<path d="M8.88892 25.5557H11.1111V27.7779H8.88892V25.5557Z" fill="#20173C"/>
<path d="M13.3333 25.5557H15.5555V27.7779H13.3333V25.5557Z" fill="#20173C"/>
<path d="M17.7778 25.5557H20V27.7779H17.7778V25.5557Z" fill="#20173C"/>
<path d="M25.5555 14.4443H27.7778V16.6666H25.5555V14.4443Z" fill="#20173C"/>
<path d="M30 14.4443H32.2222V16.6666H30V14.4443Z" fill="#20173C"/>
<path d="M25.5555 20H27.7778V22.2222H25.5555V20Z" fill="#20173C"/>
<path d="M30 20H32.2222V22.2222H30V20Z" fill="#20173C"/>
<path d="M25.5555 25.5557H27.7778V27.7779H25.5555V25.5557Z" fill="#20173C"/>
<path d="M30 25.5557H32.2222V27.7779H30V25.5557Z" fill="#20173C"/>
</g>
<defs>
<clipPath id="clip0_362_569">
<rect width="40" height="40" fill="white"/>
</clipPath>
</defs>
</svg>
