<svg width="23" height="23" viewBox="0 0 23 23" fill="none" xmlns="http://www.w3.org/2000/svg">
<g id="teenyicons:apple-solid" clip-path="url(#clip0_3_82)">
<path id="Vector" d="M12.075 4.50345C12.0003 4.50426 11.9262 4.49035 11.8568 4.46251C11.7875 4.43466 11.7243 4.39344 11.6709 4.34118C11.6175 4.28893 11.575 4.22666 11.5456 4.15795C11.5163 4.08924 11.5008 4.01542 11.5 3.94072C11.5 1.76339 13.3032 5.20548e-05 15.5235 5.20548e-05C15.5982 -0.000960716 15.6725 0.0128138 15.7419 0.0405837C15.8113 0.0683536 15.8745 0.109571 15.928 0.161866C15.9814 0.214162 16.024 0.276504 16.0532 0.345308C16.0825 0.414111 16.0979 0.488021 16.0985 0.562785C16.0985 2.74012 14.2968 4.50345 12.075 4.50345Z" fill="black"/>
<path id="Vector_2" d="M12.075 4.50345C12.0003 4.50426 11.9261 4.49035 11.8568 4.46251C11.7875 4.43466 11.7243 4.39344 11.6709 4.34118C11.6175 4.28893 11.575 4.22667 11.5456 4.15795C11.5163 4.08924 11.5008 4.01542 11.5 3.94072C11.5 1.76339 13.3032 5.20548e-05 15.5235 5.20548e-05C15.5982 -0.000960716 15.6724 0.0128138 15.7419 0.0405837C15.8113 0.0683536 15.8745 0.109571 15.928 0.161866C15.9814 0.214162 16.024 0.276504 16.0532 0.345308C16.0825 0.414112 16.0979 0.488021 16.0985 0.562785C16.0985 2.74012 14.2968 4.50345 12.075 4.50345ZM20.47 16.3577C20.6923 16.5202 20.7644 16.8177 20.6387 17.0599C18.6147 21.0251 17.0001 23.0001 15.525 23.0001C14.8381 23.0001 14.1634 22.7823 13.5056 22.3591C13.0335 22.056 12.4867 21.8893 11.9258 21.8774C11.3649 21.8655 10.8116 22.0088 10.327 22.2917C9.52965 22.7593 8.77065 23.0001 8.04999 23.0001C5.88032 23.0001 2.29999 16.4573 2.29999 12.8678C2.29999 9.03445 4.35312 6.11192 7.47499 6.11192C8.94392 6.11192 10.212 6.32352 11.2777 6.75439C11.7285 6.93532 12.2391 6.92305 12.6791 6.71605C13.5439 6.30819 14.6847 6.11192 16.0985 6.11192C17.8265 6.11192 19.3338 6.95525 20.585 8.58825C20.6302 8.64714 20.6632 8.71451 20.682 8.78638C20.7007 8.85824 20.7049 8.93314 20.6941 9.00663C20.6834 9.08013 20.658 9.15072 20.6195 9.21423C20.581 9.27775 20.5302 9.33288 20.47 9.37639C19.0731 10.4037 18.4 11.5553 18.4 12.8678C18.4 14.1788 19.0731 15.3319 20.47 16.3577Z" fill="black"/>
<path id="Vector_3" d="M20.47 16.3576C20.6923 16.5201 20.7644 16.8176 20.6387 17.0598C18.6147 21.025 17.0001 23 15.525 23C14.8381 23 14.1634 22.7822 13.5056 22.359C13.0335 22.0559 12.4867 21.8892 11.9258 21.8773C11.3649 21.8654 10.8116 22.0087 10.327 22.2916C9.52965 22.7592 8.77065 23 8.04999 23C5.88032 23 2.29999 16.4572 2.29999 12.8677C2.29999 9.03435 4.35312 6.11182 7.47499 6.11182C8.94392 6.11182 10.212 6.32342 11.2777 6.75428C11.7285 6.93522 12.2391 6.92295 12.6791 6.71595C13.5439 6.30808 14.6847 6.11182 16.0985 6.11182C17.8265 6.11182 19.3338 6.95515 20.585 8.58815C20.6302 8.64704 20.6632 8.71441 20.682 8.78628C20.7007 8.85814 20.7049 8.93304 20.6941 9.00653C20.6834 9.08002 20.658 9.15062 20.6195 9.21413C20.581 9.27764 20.5302 9.33278 20.47 9.37628C19.0731 10.4036 18.4 11.5552 18.4 12.8677C18.4 14.1787 19.0731 15.3318 20.47 16.3576Z" fill="black"/>
</g>
<defs>
<clipPath id="clip0_3_82">
<rect width="23" height="23" fill="white"/>
</clipPath>
</defs>
</svg>
