<svg width="30" height="30" viewBox="0 0 30 30" fill="none" xmlns="http://www.w3.org/2000/svg">
<g id="bx:area">
<path id="Vector" d="M3.9 23.75V6.25C3.9 4.95409 4.95409 3.9 6.25 3.9H23.75C25.0459 3.9 26.1 4.95409 26.1 6.25V23.75C26.1 25.0459 25.0459 26.1 23.75 26.1H6.25C4.95409 26.1 3.9 25.0459 3.9 23.75ZM23.2524 23.9C23.6115 23.9 23.9025 23.6089 23.9024 23.2499L23.9001 6.74991C23.9 6.39096 23.609 6.1 23.2501 6.1H6.75C6.39101 6.1 6.1 6.39101 6.1 6.75V23.25C6.1 23.609 6.39101 23.9 6.75 23.9H23.2524Z" fill="#3A3153" stroke="white" stroke-width="0.3"/>
<path id="Vector_2" d="M18.9 11.25V11.1H18.75H15.15V8.9H21.1V14.85H18.9V11.25ZM11.1 18.75V18.9H11.25H14.85V21.1H8.9V15.15H11.1V18.75Z" fill="#3A3153" stroke="white" stroke-width="0.3"/>
</g>
</svg>
