<svg width="30" height="29" viewBox="0 0 30 29" fill="none" xmlns="http://www.w3.org/2000/svg">
<path id="Vector" d="M7.375 10.5V10.625H7.5H28.5C28.8647 10.625 29.2144 10.7699 29.4723 11.0277C29.7301 11.2856 29.875 11.6353 29.875 12V15C29.875 18.854 27.3993 22.1337 23.9581 23.3572L23.875 23.3868V23.475V27.5C23.875 27.9832 23.4832 28.375 23 28.375H22C21.5168 28.375 21.125 27.9832 21.125 27.5V24V23.875H21H9H8.875V24V27.5C8.875 27.9832 8.48325 28.375 8 28.375H7C6.51675 28.375 6.125 27.9832 6.125 27.5V23.475V23.3868L6.04188 23.3572C2.60073 22.1337 0.125 18.854 0.125 15V12C0.125 11.6353 0.269866 11.2856 0.527728 11.0277C0.785591 10.7699 1.13533 10.625 1.5 10.625H4.5H4.625V10.5V6C4.625 2.76004 7.26004 0.125 10.5 0.125C13.6982 0.125 16.307 2.69253 16.3737 5.875H13.6225C13.5567 4.20921 12.1817 2.875 10.5 2.875C8.77646 2.875 7.375 4.27646 7.375 6V10.5ZM3 13.375H2.875V13.5V15C2.875 18.378 5.62196 21.125 9 21.125H21C24.378 21.125 27.125 18.378 27.125 15V13.5V13.375H27H3Z" fill="#3A3153" stroke="white" stroke-width="0.25"/>
</svg>
