<svg width="30" height="26" viewBox="0 0 30 26" fill="none" xmlns="http://www.w3.org/2000/svg">
<path id="Vector" d="M7.125 5.08284e-09H22.875C23.9254 -5.21089e-05 24.9363 0.400638 25.7014 1.12034C26.4666 1.84004 26.9283 2.82453 26.9925 3.873L27 4.125V9.156C27.8176 9.38811 28.5437 9.86694 29.079 10.5271C29.6143 11.1873 29.9328 11.9966 29.991 12.8445L30 13.125V24.375C29.9999 24.66 29.8916 24.9344 29.697 25.1427C29.5024 25.351 29.2361 25.4776 28.9517 25.497C28.6673 25.5165 28.3862 25.4272 28.1651 25.2474C27.9439 25.0675 27.7994 24.8104 27.7605 24.528L27.75 24.375V21H2.25V24.375C2.24999 24.6469 2.15154 24.9095 1.97285 25.1144C1.79416 25.3193 1.54733 25.4525 1.278 25.4895L1.125 25.5C0.853144 25.5 0.590487 25.4015 0.385604 25.2229C0.180721 25.0442 0.0474724 24.7973 0.0105 24.528L0 24.375V13.125C0 11.2365 1.269 9.645 3 9.1545V4.125C2.99995 3.07457 3.40064 2.06369 4.12034 1.29855C4.84004 0.533418 5.82453 0.0716719 6.873 0.00750018L7.125 5.08284e-09ZM25.875 11.25H4.125C3.66081 11.2498 3.21305 11.4218 2.86835 11.7327C2.52365 12.0436 2.30653 12.4713 2.259 12.933L2.25 13.125V18.75H27.75V13.125C27.7498 12.6611 27.5777 12.2137 27.2668 11.8693C26.956 11.5249 26.5285 11.308 26.067 11.2605L25.875 11.25ZM22.875 2.25H7.125C6.66081 2.24979 6.21305 2.42177 5.86835 2.73266C5.52365 3.04355 5.30653 3.47125 5.259 3.933L5.25 4.125V9H7.5C7.5 8.60218 7.65804 8.22064 7.93934 7.93934C8.22064 7.65804 8.60218 7.5 9 7.5H12C12.3674 7.50005 12.722 7.63493 12.9966 7.87907C13.2711 8.12321 13.4465 8.45962 13.4895 8.8245L13.5 9H16.5C16.5 8.60218 16.658 8.22064 16.9393 7.93934C17.2206 7.65804 17.6022 7.5 18 7.5H21C21.3674 7.50005 21.722 7.63493 21.9966 7.87907C22.2711 8.12321 22.4465 8.45962 22.4895 8.8245L22.5 9H24.75V4.125C24.7502 3.66081 24.5782 3.21305 24.2673 2.86835C23.9564 2.52365 23.5287 2.30653 23.067 2.259L22.875 2.25Z" fill="#3A3153"/>
</svg>
