<svg width="30" height="30" viewBox="0 0 30 30" fill="none" xmlns="http://www.w3.org/2000/svg">
<path d="M25.9362 15.0001L27.3162 12.6151C27.4821 12.3282 27.5272 11.9871 27.4416 11.6669C27.3561 11.3467 27.1469 11.0736 26.86 10.9076L24.4725 9.5276V6.7776C24.4725 6.44608 24.3408 6.12814 24.1064 5.89372C23.8719 5.6593 23.554 5.5276 23.2225 5.5276H20.4737L19.095 3.14135C18.9285 2.855 18.6559 2.64573 18.3362 2.55885C18.1777 2.51587 18.0122 2.50479 17.8493 2.52625C17.6865 2.5477 17.5295 2.60127 17.3875 2.68385L15 4.06385L12.6125 2.6826C12.3254 2.51685 11.9842 2.47193 11.664 2.55773C11.3438 2.64353 11.0707 2.85301 10.905 3.1401L9.52498 5.5276H6.77623C6.44471 5.5276 6.12677 5.6593 5.89235 5.89372C5.65793 6.12814 5.52623 6.44608 5.52623 6.7776V9.52635L3.13873 10.9064C2.99627 10.9883 2.87141 11.0976 2.77131 11.2279C2.67122 11.3583 2.59787 11.5071 2.55547 11.6659C2.51307 11.8247 2.50247 11.9903 2.52427 12.1532C2.54606 12.3161 2.59983 12.4731 2.68248 12.6151L4.06248 15.0001L2.68248 17.3851C2.51747 17.6723 2.4727 18.0131 2.55793 18.3332C2.64316 18.6533 2.85149 18.9267 3.13748 19.0939L5.52498 20.4739V23.2226C5.52498 23.5541 5.65668 23.8721 5.8911 24.1065C6.12552 24.3409 6.44346 24.4726 6.77498 24.4726H9.52498L10.905 26.8601C11.0156 27.0493 11.1737 27.2064 11.3635 27.316C11.5533 27.4256 11.7683 27.4838 11.9875 27.4851C12.205 27.4851 12.4212 27.4276 12.6137 27.3164L14.9987 25.9364L17.3862 27.3164C17.6733 27.4819 18.0142 27.5268 18.3343 27.4413C18.6544 27.3557 18.9275 27.1467 19.0937 26.8601L20.4725 24.4726H23.2212C23.5528 24.4726 23.8707 24.3409 24.1051 24.1065C24.3395 23.8721 24.4712 23.5541 24.4712 23.2226V20.4739L26.8587 19.0939C27.0009 19.0117 27.1256 18.9023 27.2255 18.7719C27.3254 18.6415 27.3986 18.4927 27.441 18.334C27.4834 18.1753 27.494 18.0099 27.4724 17.847C27.4508 17.6842 27.3973 17.5272 27.315 17.3851L25.9362 15.0001ZM11.8737 8.7376C12.3712 8.73777 12.8482 8.93554 13.1998 9.2874C13.5514 9.63927 13.7489 10.1164 13.7487 10.6139C13.7486 11.1113 13.5508 11.5883 13.1989 11.9399C12.8471 12.2916 12.3699 12.489 11.8725 12.4889C11.375 12.4887 10.898 12.2909 10.5464 11.9391C10.1948 11.5872 9.99732 11.11 9.99748 10.6126C9.99765 10.1152 10.1954 9.63815 10.5473 9.28652C10.8991 8.93489 11.3763 8.73744 11.8737 8.7376ZM12.2487 20.7376L10.2487 19.2389L17.7487 9.23885L19.7487 10.7376L12.2487 20.7376ZM18.1237 21.2376C17.8774 21.2375 17.6335 21.1889 17.406 21.0946C17.1785 21.0003 16.9718 20.862 16.7976 20.6878C16.6235 20.5136 16.4854 20.3068 16.3913 20.0792C16.2971 19.8516 16.2486 19.6077 16.2487 19.3614C16.2488 19.115 16.2974 18.8712 16.3917 18.6436C16.4861 18.4161 16.6243 18.2094 16.7985 18.0353C16.9728 17.8612 17.1796 17.7231 17.4072 17.6289C17.6348 17.5347 17.8787 17.4863 18.125 17.4864C18.6224 17.4865 19.0994 17.6843 19.4511 18.0362C19.8027 18.388 20.0001 18.8652 20 19.3626C19.9998 19.86 19.802 20.3371 19.4502 20.6887C19.0983 21.0403 18.6212 21.2378 18.1237 21.2376Z" fill="#3A3153"/>
</svg>
