<svg width="30" height="30" viewBox="0 0 30 30" fill="none" xmlns="http://www.w3.org/2000/svg">
<g clip-path="url(#clip0_405_601)">
<path d="M29.5752 15.7471C29.8584 16.3721 30 17.0215 30 17.6953V18.75C30 19.1211 29.9512 19.4775 29.8535 19.8193C29.7559 20.1611 29.6094 20.4785 29.4141 20.7715C29.2188 21.0645 28.9844 21.3281 28.7109 21.5625C28.4375 21.7969 28.1348 21.9922 27.8027 22.1484C27.6562 22.4902 27.4658 22.7979 27.2314 23.0713C26.9971 23.3447 26.7285 23.5742 26.4258 23.7598C26.123 23.9453 25.8008 24.0967 25.459 24.2139C25.1172 24.3311 24.7559 24.3848 24.375 24.375C23.7012 24.375 23.0762 24.209 22.5 23.877C21.9238 23.5449 21.4648 23.0859 21.123 22.5H10.752C10.4102 23.0859 9.95117 23.5449 9.375 23.877C8.79883 24.209 8.17383 24.375 7.5 24.375C6.82617 24.375 6.20117 24.209 5.625 23.877C5.04883 23.5449 4.58984 23.0859 4.24805 22.5H1.875C1.61133 22.5 1.36719 22.4512 1.14258 22.3535C0.917969 22.2559 0.722656 22.124 0.556641 21.958C0.390625 21.792 0.253906 21.5918 0.146484 21.3574C0.0390625 21.123 -0.00976562 20.8789 1.16415e-10 20.625V16.875C1.16415e-10 16.1035 0.146484 15.376 0.439453 14.6924C0.732422 14.0088 1.13281 13.4131 1.64062 12.9053C2.14844 12.3975 2.74414 11.9922 3.42773 11.6895C4.11133 11.3867 4.84375 11.2402 5.625 11.25H6.16699L10.9717 6.44531C11.2354 6.18164 11.5381 5.98145 11.8799 5.84473C12.2217 5.70801 12.583 5.63477 12.9639 5.625H26.25V7.5H25.8252L29.5752 15.7471ZM7.5 22.5C7.76367 22.5 8.00781 22.4512 8.23242 22.3535C8.45703 22.2559 8.65234 22.124 8.81836 21.958C8.98438 21.792 9.12109 21.5918 9.22852 21.3574C9.33594 21.123 9.38477 20.8789 9.375 20.625C9.375 20.3613 9.32617 20.1172 9.22852 19.8926C9.13086 19.668 8.99902 19.4727 8.83301 19.3066C8.66699 19.1406 8.4668 19.0039 8.23242 18.8965C7.99805 18.7891 7.75391 18.7402 7.5 18.75C7.23633 18.75 6.99219 18.7988 6.76758 18.8965C6.54297 18.9941 6.34766 19.126 6.18164 19.292C6.01562 19.458 5.87891 19.6582 5.77148 19.8926C5.66406 20.127 5.61523 20.3711 5.625 20.625C5.625 20.8887 5.67383 21.1328 5.77148 21.3574C5.86914 21.582 6.00098 21.7773 6.16699 21.9434C6.33301 22.1094 6.5332 22.2461 6.76758 22.3535C7.00195 22.4609 7.24609 22.5098 7.5 22.5ZM16.875 7.5H12.9639C12.71 7.5 12.4902 7.59277 12.3047 7.77832L8.83301 11.25H16.875V7.5ZM18.75 11.25H25.4736L24.0234 8.04199C23.9453 7.87598 23.8281 7.74414 23.6719 7.64648C23.5156 7.54883 23.3447 7.5 23.1592 7.5H18.75V11.25ZM24.375 22.5C24.6387 22.5 24.8828 22.4512 25.1074 22.3535C25.332 22.2559 25.5273 22.124 25.6934 21.958C25.8594 21.792 25.9961 21.5918 26.1035 21.3574C26.2109 21.123 26.2598 20.8789 26.25 20.625C26.25 20.3613 26.2012 20.1172 26.1035 19.8926C26.0059 19.668 25.874 19.4727 25.708 19.3066C25.542 19.1406 25.3418 19.0039 25.1074 18.8965C24.873 18.7891 24.6289 18.7402 24.375 18.75C24.1113 18.75 23.8672 18.7988 23.6426 18.8965C23.418 18.9941 23.2227 19.126 23.0566 19.292C22.8906 19.458 22.7539 19.6582 22.6465 19.8926C22.5391 20.127 22.4902 20.3711 22.5 20.625C22.5 20.8887 22.5488 21.1328 22.6465 21.3574C22.7441 21.582 22.876 21.7773 23.042 21.9434C23.208 22.1094 23.4082 22.2461 23.6426 22.3535C23.877 22.4609 24.1211 22.5098 24.375 22.5Z" fill="#20173C"/>
</g>
<defs>
<clipPath id="clip0_405_601">
<rect width="30" height="30" fill="white"/>
</clipPath>
</defs>
</svg>
