<svg width="28" height="28" viewBox="0 0 28 28" fill="none" xmlns="http://www.w3.org/2000/svg">
<g clip-path="url(#clip0_421_123)">
<path fill-rule="evenodd" clip-rule="evenodd" d="M14 4.66711C13.5404 4.66711 13.0852 4.75764 12.6606 4.93353C12.236 5.10942 11.8501 5.36723 11.5251 5.69223C11.2001 6.01724 10.9423 6.40308 10.7664 6.82772C10.5905 7.25236 10.5 7.70748 10.5 8.16711C10.5 8.62673 10.5905 9.08186 10.7664 9.5065C10.9423 9.93114 11.2001 10.317 11.5251 10.642C11.8501 10.967 12.236 11.2248 12.6606 11.4007C13.0852 11.5766 13.5404 11.6671 14 11.6671C14.9283 11.6671 15.8185 11.2984 16.4749 10.642C17.1313 9.9856 17.5 9.09537 17.5 8.16711C17.5 7.23885 17.1313 6.34861 16.4749 5.69223C15.8185 5.03586 14.9283 4.66711 14 4.66711ZM8.16667 8.16711C8.16689 7.06341 8.48023 5.98241 9.07029 5.04968C9.66035 4.11695 10.5029 3.37076 11.5001 2.89777C12.4973 2.42478 13.6083 2.24441 14.7039 2.37759C15.7996 2.51078 16.8349 2.95206 17.6898 3.65019C18.5446 4.34832 19.1839 5.27465 19.5333 6.32158C19.8827 7.36852 19.9279 8.49309 19.6637 9.56471C19.3995 10.6363 18.8367 11.611 18.0407 12.3755C17.2447 13.14 16.2481 13.663 15.1667 13.8838V19.8338C15.1667 20.1432 15.0437 20.4399 14.825 20.6587C14.6062 20.8775 14.3094 21.0004 14 21.0004C13.6906 21.0004 13.3938 20.8775 13.175 20.6587C12.9562 20.4399 12.8333 20.1432 12.8333 19.8338V13.8838C11.5159 13.6144 10.332 12.8984 9.48167 11.8567C8.63135 10.8151 8.16683 9.51175 8.16667 8.16711ZM11.0705 18.7838C11.0937 18.9353 11.0868 19.0899 11.0502 19.2388C11.0137 19.3877 10.9481 19.5279 10.8573 19.6514C10.7665 19.7749 10.6523 19.8793 10.5211 19.9587C10.3899 20.038 10.2444 20.0907 10.0928 20.1138C8.60183 20.3401 7.41767 20.6843 6.6395 21.0646C5.21617 21.7611 6.87983 22.2616 7.74783 22.5323C9.296 23.0164 11.5068 23.3338 14 23.3338C16.4932 23.3338 18.704 23.0164 20.2522 22.5323C21.126 22.2593 22.7838 21.7623 21.3605 21.0646C20.5823 20.6843 19.3982 20.3413 17.9072 20.1138C17.7539 20.0928 17.6064 20.0415 17.4732 19.9629C17.34 19.8844 17.2237 19.7801 17.1311 19.6562C17.0386 19.5323 16.9716 19.3913 16.934 19.2413C16.8964 19.0912 16.8891 18.9352 16.9124 18.7823C16.9356 18.6294 16.9891 18.4827 17.0696 18.3506C17.1501 18.2186 17.2561 18.1039 17.3813 18.0131C17.5065 17.9224 17.6486 17.8575 17.7991 17.8221C17.9497 17.7868 18.1058 17.7817 18.2583 17.8073C19.8777 18.0523 21.3173 18.4454 22.3872 18.9693C23.4185 19.4744 24.5 20.3249 24.5 21.5838C24.5 22.5299 23.8887 23.2171 23.2937 23.6569C20.7853 25.5096 16.9587 25.6671 14 25.6671C11.3377 25.6671 8.88183 25.3311 7.0525 24.7594C5.59417 24.3044 3.5 23.4061 3.5 21.5838C3.5 20.3238 4.5815 19.4744 5.61283 18.9704C6.68267 18.4454 8.1235 18.0534 9.7405 17.8073C9.89203 17.7841 10.0467 17.791 10.1955 17.8275C10.3444 17.8641 10.4846 17.9297 10.6081 18.0205C10.7316 18.1113 10.836 18.2255 10.9154 18.3567C10.9947 18.4879 11.0474 18.6322 11.0705 18.7838Z" fill="#20173C"/>
</g>
<defs>
<clipPath id="clip0_421_123">
<rect width="28" height="28" fill="white"/>
</clipPath>
</defs>
</svg>
