<svg width="35" height="35" viewBox="0 0 35 35" fill="none" xmlns="http://www.w3.org/2000/svg">
<path d="M15.4583 24.2084L25.7396 13.9272L23.6979 11.8855L15.4583 20.1251L11.3021 15.9688L9.26041 18.0105L15.4583 24.2084ZM17.5 32.0834C15.4826 32.0834 13.5868 31.7004 11.8125 30.9342C10.0382 30.1681 8.49478 29.1293 7.18228 27.8178C5.86978 26.5053 4.83096 24.9619 4.06582 23.1876C3.30068 21.4133 2.91763 19.5174 2.91666 17.5001C2.91666 15.4827 3.29971 13.5869 4.06582 11.8126C4.83193 10.0383 5.87075 8.49487 7.18228 7.18237C8.49478 5.86987 10.0382 4.83105 11.8125 4.06591C13.5868 3.30078 15.4826 2.91772 17.5 2.91675C19.5174 2.91675 21.4132 3.2998 23.1875 4.06591C24.9618 4.83203 26.5052 5.87085 27.8177 7.18237C29.1302 8.49487 30.1695 10.0383 30.9356 11.8126C31.7017 13.5869 32.0843 15.4827 32.0833 17.5001C32.0833 19.5174 31.7003 21.4133 30.9342 23.1876C30.168 24.9619 29.1292 26.5053 27.8177 27.8178C26.5052 29.1303 24.9618 30.1696 23.1875 30.9357C21.4132 31.7018 19.5174 32.0844 17.5 32.0834Z" fill="black"/>
</svg>
