<svg width="24" height="24" viewBox="0 0 24 24" fill="none" xmlns="http://www.w3.org/2000/svg">
<path d="M12.15 16.15C12.7 16.15 13.171 16.021 13.563 15.763C13.955 15.505 14.1507 15.1007 14.15 14.55C14.15 14.0667 13.9457 13.675 13.537 13.375C13.1283 13.075 12.3993 12.7333 11.35 12.35C10.3667 12 9.646 11.5833 9.188 11.1C8.73 10.6167 8.50067 9.98333 8.5 9.2C8.5 8.51667 8.73767 7.896 9.213 7.338C9.68834 6.78 10.334 6.41733 11.15 6.25V5.875C11.15 5.64167 11.2377 5.43733 11.413 5.262C11.5883 5.08667 11.792 4.99933 12.024 5C12.2573 5 12.4617 5.08767 12.637 5.263C12.8123 5.43833 12.8997 5.64233 12.899 5.875V6.25C13.3823 6.28333 13.8283 6.446 14.237 6.738C14.6457 7.03 14.9747 7.384 15.224 7.8C15.3407 7.98333 15.349 8.17933 15.249 8.388C15.149 8.59667 14.9823 8.74233 14.749 8.825C14.5323 8.90833 14.3157 8.91667 14.099 8.85C13.8823 8.78333 13.7073 8.65833 13.574 8.475C13.4073 8.275 13.199 8.11267 12.949 7.988C12.699 7.86333 12.399 7.80067 12.049 7.8C11.4657 7.8 11.0197 7.925 10.711 8.175C10.4023 8.425 10.2487 8.76667 10.25 9.2C10.25 9.63333 10.4417 9.975 10.825 10.225C11.2083 10.475 11.9 10.7667 12.9 11.1C14.1 11.5333 14.9 12.0417 15.3 12.625C15.7 13.2083 15.9 13.85 15.9 14.55C15.9 15.0333 15.8167 15.4583 15.65 15.825C15.4833 16.1917 15.2623 16.5043 14.987 16.763C14.7123 17.021 14.3917 17.229 14.025 17.387C13.6583 17.545 13.2667 17.666 12.85 17.75V18.125C12.85 18.3583 12.7627 18.5627 12.588 18.738C12.4133 18.9133 12.209 19.0007 11.975 19C11.7417 19 11.5377 18.9123 11.363 18.737C11.1883 18.5617 11.1007 18.3577 11.1 18.125V17.7C10.4667 17.5667 9.925 17.3167 9.475 16.95C9.025 16.5833 8.66667 16.1167 8.4 15.55C8.3 15.3167 8.30434 15.0917 8.413 14.875C8.52167 14.6583 8.69234 14.5083 8.925 14.425C9.14167 14.3417 9.35834 14.3457 9.575 14.437C9.79167 14.5283 9.95834 14.6743 10.075 14.875C10.3083 15.3083 10.6043 15.629 10.963 15.837C11.3217 16.045 11.7173 16.1493 12.15 16.15ZM12 23C10.1333 23 8.41667 22.575 6.85 21.725C5.28334 20.875 4 19.7417 3 18.325V20C3 20.2833 2.904 20.521 2.712 20.713C2.52 20.905 2.28267 21.0007 2 21C1.71667 21 1.479 20.904 1.287 20.712C1.095 20.52 0.999337 20.2827 1 20V16C1 15.7167 1.096 15.479 1.288 15.287C1.48 15.095 1.71734 14.9993 2 15H6C6.28334 15 6.521 15.096 6.713 15.288C6.905 15.48 7.00067 15.7173 7 16C7 16.2833 6.904 16.521 6.712 16.713C6.52 16.905 6.28267 17.0007 6 17H4.525C5.325 18.2 6.37934 19.1667 7.688 19.9C8.99667 20.6333 10.434 21 12 21C14.35 21 16.371 20.2167 18.063 18.65C19.755 17.0833 20.7173 15.1583 20.95 12.875C20.9833 12.6083 21.1 12.3957 21.3 12.237C21.5 12.0783 21.7333 11.9993 22 12C22.2833 12 22.525 12.0877 22.725 12.263C22.925 12.4383 23.0083 12.6507 22.975 12.9C22.8583 14.3167 22.4917 15.6373 21.875 16.862C21.2583 18.0867 20.4583 19.1533 19.475 20.062C18.4917 20.9707 17.3623 21.6873 16.087 22.212C14.8117 22.7367 13.4493 22.9993 12 23ZM12 3C9.65 3 7.629 3.78333 5.937 5.35C4.245 6.91667 3.28267 8.84167 3.05 11.125C3.01667 11.3917 2.9 11.6043 2.7 11.763C2.5 11.9217 2.26667 12.0007 2 12C1.71667 12 1.475 11.9123 1.275 11.737C1.075 11.5617 0.99167 11.3493 1.025 11.1C1.14167 9.68333 1.50834 8.36267 2.125 7.138C2.74167 5.91333 3.54167 4.84667 4.525 3.938C5.50834 3.02933 6.63767 2.31267 7.913 1.788C9.18834 1.26333 10.5507 1.00067 12 1C13.8667 1 15.5833 1.425 17.15 2.275C18.7167 3.125 20 4.25833 21 5.675V4C21 3.71667 21.096 3.47933 21.288 3.288C21.48 3.09667 21.7173 3.00067 22 3C22.2833 3 22.521 3.096 22.713 3.288C22.905 3.48 23.0007 3.71733 23 4V8C23 8.28333 22.904 8.521 22.712 8.713C22.52 8.905 22.2827 9.00067 22 9H18C17.7167 9 17.479 8.904 17.287 8.712C17.095 8.52 16.9993 8.28267 17 8C17 7.71667 17.096 7.479 17.288 7.287C17.48 7.095 17.7173 6.99933 18 7H19.475C18.675 5.8 17.6207 4.83333 16.312 4.1C15.0033 3.36667 13.566 3 12 3Z" fill="#3A3153"/>
</svg>
