<svg width="40" height="40" viewBox="0 0 40 40" fill="none" xmlns="http://www.w3.org/2000/svg">
<path d="M6.66663 19.0865V27.9999C6.66663 29.8665 6.66663 30.7999 7.02996 31.5149C7.34996 32.1415 7.85829 32.6515 8.48663 32.9699C9.19829 33.3332 10.1316 33.3332 11.995 33.3332H28.005C29.8683 33.3332 30.8 33.3332 31.5116 32.9699C32.1392 32.651 32.6497 32.1417 32.97 31.5149C33.3333 30.8015 33.3333 29.8699 33.3333 28.0065V19.0865C33.3333 18.1965 33.3333 17.7515 33.225 17.3365C33.1291 16.9697 32.9713 16.6219 32.7583 16.3082C32.5166 15.9532 32.1833 15.6582 31.5116 15.0732L23.5116 8.0732C22.2683 6.98487 21.645 6.43987 20.945 6.2332C20.3283 6.04987 19.6716 6.04987 19.0533 6.2332C18.3533 6.43987 17.7333 6.9832 16.49 8.06987L8.48829 15.0732C7.81829 15.6599 7.48329 15.9532 7.24329 16.3065C7.02963 16.6207 6.87123 16.969 6.77496 17.3365C6.66663 17.7499 6.66663 18.1965 6.66663 19.0865Z" stroke="#20173C" stroke-width="2" stroke-linecap="round" stroke-linejoin="round"/>
<path d="M15 24C17.21 24 19 22.21 19 20C19 17.79 17.21 16 15 16C12.79 16 11 17.79 11 20C11 22.21 12.79 24 15 24ZM15 26C12.33 26 7 27.34 7 30V31C7 31.55 7.45 32 8 32H22C22.55 32 23 31.55 23 31V30C23 27.34 17.67 26 15 26Z" fill="#20173C"/>
<path d="M25 24C27.21 24 29 22.21 29 20C29 17.79 27.21 16 25 16C22.79 16 21 17.79 21 20C21 22.21 22.79 24 25 24ZM25 26C22.33 26 17 27.34 17 30V31C17 31.55 17.45 32 18 32H32C32.55 32 33 31.55 33 31V30C33 27.34 27.67 26 25 26Z" fill="#20173C"/>
</svg>
