<svg width="27" height="35" viewBox="0 0 27 35" fill="none" xmlns="http://www.w3.org/2000/svg">
<g clip-path="url(#clip0_503_10)">
<path d="M7.36364 25.625V26.875C7.36364 27.0443 7.30291 27.1908 7.18146 27.3145C7.06001 27.4382 6.91619 27.5 6.75 27.5H5.52273C5.35653 27.5 5.21271 27.4382 5.09126 27.3145C4.96982 27.1908 4.90909 27.0443 4.90909 26.875V25.625C4.90909 25.4557 4.96982 25.3092 5.09126 25.1855C5.21271 25.0618 5.35653 25 5.52273 25H6.75C6.91619 25 7.06001 25.0618 7.18146 25.1855C7.30291 25.3092 7.36364 25.4557 7.36364 25.625ZM7.36364 20.625V21.875C7.36364 22.0443 7.30291 22.1908 7.18146 22.3145C7.06001 22.4382 6.91619 22.5 6.75 22.5H5.52273C5.35653 22.5 5.21271 22.4382 5.09126 22.3145C4.96982 22.1908 4.90909 22.0443 4.90909 21.875V20.625C4.90909 20.4557 4.96982 20.3092 5.09126 20.1855C5.21271 20.0618 5.35653 20 5.52273 20H6.75C6.91619 20 7.06001 20.0618 7.18146 20.1855C7.30291 20.3092 7.36364 20.4557 7.36364 20.625ZM12.2727 20.625V21.875C12.2727 22.0443 12.212 22.1908 12.0906 22.3145C11.9691 22.4382 11.8253 22.5 11.6591 22.5H10.4318C10.2656 22.5 10.1218 22.4382 10.0004 22.3145C9.87891 22.1908 9.81818 22.0443 9.81818 21.875V20.625C9.81818 20.4557 9.87891 20.3092 10.0004 20.1855C10.1218 20.0618 10.2656 20 10.4318 20H11.6591C11.8253 20 11.9691 20.0618 12.0906 20.1855C12.212 20.3092 12.2727 20.4557 12.2727 20.625ZM7.36364 15.625V16.875C7.36364 17.0443 7.30291 17.1908 7.18146 17.3145C7.06001 17.4382 6.91619 17.5 6.75 17.5H5.52273C5.35653 17.5 5.21271 17.4382 5.09126 17.3145C4.96982 17.1908 4.90909 17.0443 4.90909 16.875V15.625C4.90909 15.4557 4.96982 15.3092 5.09126 15.1855C5.21271 15.0618 5.35653 15 5.52273 15H6.75C6.91619 15 7.06001 15.0618 7.18146 15.1855C7.30291 15.3092 7.36364 15.4557 7.36364 15.625ZM22.0909 25.625V26.875C22.0909 27.0443 22.0302 27.1908 21.9087 27.3145C21.7873 27.4382 21.6435 27.5 21.4773 27.5H20.25C20.0838 27.5 19.94 27.4382 19.8185 27.3145C19.6971 27.1908 19.6364 27.0443 19.6364 26.875V25.625C19.6364 25.4557 19.6971 25.3092 19.8185 25.1855C19.94 25.0618 20.0838 25 20.25 25H21.4773C21.6435 25 21.7873 25.0618 21.9087 25.1855C22.0302 25.3092 22.0909 25.4557 22.0909 25.625ZM17.1818 20.625V21.875C17.1818 22.0443 17.1211 22.1908 16.9996 22.3145C16.8782 22.4382 16.7344 22.5 16.5682 22.5H15.3409C15.1747 22.5 15.0309 22.4382 14.9094 22.3145C14.788 22.1908 14.7273 22.0443 14.7273 21.875V20.625C14.7273 20.4557 14.788 20.3092 14.9094 20.1855C15.0309 20.0618 15.1747 20 15.3409 20H16.5682C16.7344 20 16.8782 20.0618 16.9996 20.1855C17.1211 20.3092 17.1818 20.4557 17.1818 20.625ZM12.2727 15.625V16.875C12.2727 17.0443 12.212 17.1908 12.0906 17.3145C11.9691 17.4382 11.8253 17.5 11.6591 17.5H10.4318C10.2656 17.5 10.1218 17.4382 10.0004 17.3145C9.87891 17.1908 9.81818 17.0443 9.81818 16.875V15.625C9.81818 15.4557 9.87891 15.3092 10.0004 15.1855C10.1218 15.0618 10.2656 15 10.4318 15H11.6591C11.8253 15 11.9691 15.0618 12.0906 15.1855C12.212 15.3092 12.2727 15.4557 12.2727 15.625ZM7.36364 10.625V11.875C7.36364 12.0443 7.30291 12.1908 7.18146 12.3145C7.06001 12.4382 6.91619 12.5 6.75 12.5H5.52273C5.35653 12.5 5.21271 12.4382 5.09126 12.3145C4.96982 12.1908 4.90909 12.0443 4.90909 11.875V10.625C4.90909 10.4557 4.96982 10.3092 5.09126 10.1855C5.21271 10.0618 5.35653 10 5.52273 10H6.75C6.91619 10 7.06001 10.0618 7.18146 10.1855C7.30291 10.3092 7.36364 10.4557 7.36364 10.625ZM22.0909 20.625V21.875C22.0909 22.0443 22.0302 22.1908 21.9087 22.3145C21.7873 22.4382 21.6435 22.5 21.4773 22.5H20.25C20.0838 22.5 19.94 22.4382 19.8185 22.3145C19.6971 22.1908 19.6364 22.0443 19.6364 21.875V20.625C19.6364 20.4557 19.6971 20.3092 19.8185 20.1855C19.94 20.0618 20.0838 20 20.25 20H21.4773C21.6435 20 21.7873 20.0618 21.9087 20.1855C22.0302 20.3092 22.0909 20.4557 22.0909 20.625ZM17.1818 15.625V16.875C17.1818 17.0443 17.1211 17.1908 16.9996 17.3145C16.8782 17.4382 16.7344 17.5 16.5682 17.5H15.3409C15.1747 17.5 15.0309 17.4382 14.9094 17.3145C14.788 17.1908 14.7273 17.0443 14.7273 16.875V15.625C14.7273 15.4557 14.788 15.3092 14.9094 15.1855C15.0309 15.0618 15.1747 15 15.3409 15H16.5682C16.7344 15 16.8782 15.0618 16.9996 15.1855C17.1211 15.3092 17.1818 15.4557 17.1818 15.625ZM12.2727 10.625V11.875C12.2727 12.0443 12.212 12.1908 12.0906 12.3145C11.9691 12.4382 11.8253 12.5 11.6591 12.5H10.4318C10.2656 12.5 10.1218 12.4382 10.0004 12.3145C9.87891 12.1908 9.81818 12.0443 9.81818 11.875V10.625C9.81818 10.4557 9.87891 10.3092 10.0004 10.1855C10.1218 10.0618 10.2656 10 10.4318 10H11.6591C11.8253 10 11.9691 10.0618 12.0906 10.1855C12.212 10.3092 12.2727 10.4557 12.2727 10.625ZM7.36364 5.625V6.875C7.36364 7.04427 7.30291 7.19076 7.18146 7.31445C7.06001 7.43815 6.91619 7.5 6.75 7.5H5.52273C5.35653 7.5 5.21271 7.43815 5.09126 7.31445C4.96982 7.19076 4.90909 7.04427 4.90909 6.875V5.625C4.90909 5.45573 4.96982 5.30924 5.09126 5.18555C5.21271 5.06185 5.35653 5 5.52273 5H6.75C6.91619 5 7.06001 5.06185 7.18146 5.18555C7.30291 5.30924 7.36364 5.45573 7.36364 5.625ZM22.0909 15.625V16.875C22.0909 17.0443 22.0302 17.1908 21.9087 17.3145C21.7873 17.4382 21.6435 17.5 21.4773 17.5H20.25C20.0838 17.5 19.94 17.4382 19.8185 17.3145C19.6971 17.1908 19.6364 17.0443 19.6364 16.875V15.625C19.6364 15.4557 19.6971 15.3092 19.8185 15.1855C19.94 15.0618 20.0838 15 20.25 15H21.4773C21.6435 15 21.7873 15.0618 21.9087 15.1855C22.0302 15.3092 22.0909 15.4557 22.0909 15.625ZM17.1818 10.625V11.875C17.1818 12.0443 17.1211 12.1908 16.9996 12.3145C16.8782 12.4382 16.7344 12.5 16.5682 12.5H15.3409C15.1747 12.5 15.0309 12.4382 14.9094 12.3145C14.788 12.1908 14.7273 12.0443 14.7273 11.875V10.625C14.7273 10.4557 14.788 10.3092 14.9094 10.1855C15.0309 10.0618 15.1747 10 15.3409 10H16.5682C16.7344 10 16.8782 10.0618 16.9996 10.1855C17.1211 10.3092 17.1818 10.4557 17.1818 10.625ZM12.2727 5.625V6.875C12.2727 7.04427 12.212 7.19076 12.0906 7.31445C11.9691 7.43815 11.8253 7.5 11.6591 7.5H10.4318C10.2656 7.5 10.1218 7.43815 10.0004 7.31445C9.87891 7.19076 9.81818 7.04427 9.81818 6.875V5.625C9.81818 5.45573 9.87891 5.30924 10.0004 5.18555C10.1218 5.06185 10.2656 5 10.4318 5H11.6591C11.8253 5 11.9691 5.06185 12.0906 5.18555C12.212 5.30924 12.2727 5.45573 12.2727 5.625ZM22.0909 10.625V11.875C22.0909 12.0443 22.0302 12.1908 21.9087 12.3145C21.7873 12.4382 21.6435 12.5 21.4773 12.5H20.25C20.0838 12.5 19.94 12.4382 19.8185 12.3145C19.6971 12.1908 19.6364 12.0443 19.6364 11.875V10.625C19.6364 10.4557 19.6971 10.3092 19.8185 10.1855C19.94 10.0618 20.0838 10 20.25 10H21.4773C21.6435 10 21.7873 10.0618 21.9087 10.1855C22.0302 10.3092 22.0909 10.4557 22.0909 10.625ZM17.1818 5.625V6.875C17.1818 7.04427 17.1211 7.19076 16.9996 7.31445C16.8782 7.43815 16.7344 7.5 16.5682 7.5H15.3409C15.1747 7.5 15.0309 7.43815 14.9094 7.31445C14.788 7.19076 14.7273 7.04427 14.7273 6.875V5.625C14.7273 5.45573 14.788 5.30924 14.9094 5.18555C15.0309 5.06185 15.1747 5 15.3409 5H16.5682C16.7344 5 16.8782 5.06185 16.9996 5.18555C17.1211 5.30924 17.1818 5.45573 17.1818 5.625ZM22.0909 5.625V6.875C22.0909 7.04427 22.0302 7.19076 21.9087 7.31445C21.7873 7.43815 21.6435 7.5 21.4773 7.5H20.25C20.0838 7.5 19.94 7.43815 19.8185 7.31445C19.6971 7.19076 19.6364 7.04427 19.6364 6.875V5.625C19.6364 5.45573 19.6971 5.30924 19.8185 5.18555C19.94 5.06185 20.0838 5 20.25 5H21.4773C21.6435 5 21.7873 5.06185 21.9087 5.18555C22.0302 5.30924 22.0909 5.45573 22.0909 5.625ZM17.1818 32.5H24.5455V2.5H2.45455V32.5H9.81818V28.125C9.81818 27.9557 9.87891 27.8092 10.0004 27.6855C10.1218 27.5618 10.2656 27.5 10.4318 27.5H16.5682C16.7344 27.5 16.8782 27.5618 16.9996 27.6855C17.1211 27.8092 17.1818 27.9557 17.1818 28.125V32.5ZM27 1.25V33.75C27 34.0885 26.8786 34.3815 26.6357 34.6289C26.3928 34.8763 26.1051 35 25.7727 35H1.22727C0.894886 35 0.607244 34.8763 0.364347 34.6289C0.121449 34.3815 0 34.0885 0 33.75V1.25C0 0.911458 0.121449 0.61849 0.364347 0.371094C0.607244 0.123698 0.894886 0 1.22727 0H25.7727C26.1051 0 26.3928 0.123698 26.6357 0.371094C26.8786 0.61849 27 0.911458 27 1.25Z" fill="black"/>
</g>
<defs>
<clipPath id="clip0_503_10">
<rect width="27" height="35" fill="white"/>
</clipPath>
</defs>
</svg>
