<svg width="22" height="22" viewBox="0 0 22 22" fill="none" xmlns="http://www.w3.org/2000/svg">
<g id="logos:google-icon" clip-path="url(#clip0_3_62)">
<path id="Vector" d="M21.9895 11.2059C21.9895 10.3045 21.9146 9.64681 21.7526 8.96472H11.2191V13.0329H17.4021C17.2775 14.0439 16.6043 15.5664 15.1084 16.5895L15.0874 16.7257L18.4179 19.2467L18.6487 19.2692C20.7678 17.3569 21.9895 14.5432 21.9895 11.2059Z" fill="#4285F4"/>
<path id="Vector_2" d="M11.2191 21.9244C14.2482 21.9244 16.7912 20.9499 18.6487 19.2691L15.1084 16.5894C14.161 17.2349 12.8895 17.6856 11.2191 17.6856C8.2523 17.6856 5.73424 15.7734 4.83662 13.1302L4.70505 13.1412L1.24194 15.7599L1.19666 15.8829C3.04156 19.4639 6.83115 21.9244 11.2191 21.9244Z" fill="#34A853"/>
<path id="Vector_3" d="M4.83665 13.1303C4.5998 12.4482 4.46273 11.7174 4.46273 10.9622C4.46273 10.207 4.5998 9.47621 4.82419 8.79413L4.81791 8.64886L1.31141 5.98804L1.19668 6.04136C0.436305 7.52737 0 9.19609 0 10.9622C0 12.7284 0.436305 14.397 1.19668 15.883L4.83665 13.1303Z" fill="#FBBC05"/>
<path id="Vector_4" d="M11.2191 4.23869C13.3258 4.23869 14.7469 5.12785 15.5572 5.87089L18.7234 2.85018C16.7788 1.08405 14.2482 0 11.2191 0C6.83115 0 3.04156 2.46039 1.19666 6.04135L4.82416 8.79412C5.73424 6.15102 8.2523 4.23869 11.2191 4.23869Z" fill="#EB4335"/>
</g>
<defs>
<clipPath id="clip0_3_62">
<rect width="22" height="22" fill="white"/>
</clipPath>
</defs>
</svg>
