<svg width="30" height="30" viewBox="0 0 30 30" fill="none" xmlns="http://www.w3.org/2000/svg">
<path d="M4 11.2503V11.25V6.25C4 5.6294 4.21824 5.10406 4.66178 4.66053C5.1053 4.217 5.63012 3.99925 6.2497 4H6.25H11.25C11.8706 4 12.3959 4.21824 12.8395 4.66178C13.283 5.1053 13.5008 5.63012 13.5 6.2497V6.25V11.25C13.5 11.8706 13.2818 12.3959 12.8382 12.8395C12.3947 13.283 11.8699 13.5008 11.2503 13.5H11.25H6.25C5.6294 13.5 5.10406 13.2818 4.66053 12.8382C4.217 12.3947 3.99925 11.8699 4 11.2503ZM4 23.7503V23.75V18.75C4 18.1294 4.21824 17.6041 4.66178 17.1605C5.1053 16.717 5.63012 16.4993 6.2497 16.5H6.25H11.25C11.8706 16.5 12.3959 16.7182 12.8395 17.1618C13.283 17.6053 13.5008 18.1301 13.5 18.7497V18.75V23.75C13.5 24.3706 13.2818 24.8959 12.8382 25.3395C12.3947 25.783 11.8699 26.0008 11.2503 26H11.25H6.25C5.6294 26 5.10406 25.7818 4.66053 25.3382C4.217 24.8947 3.99925 24.3699 4 23.7503ZM16.5 11.2503V11.25V6.25C16.5 5.6294 16.7182 5.10406 17.1618 4.66053C17.6053 4.217 18.1301 3.99925 18.7497 4H18.75H23.75C24.3706 4 24.8959 4.21824 25.3395 4.66178C25.783 5.1053 26.0008 5.63012 26 6.2497V6.25V11.25C26 11.8706 25.7818 12.3959 25.3382 12.8395C24.8947 13.283 24.3699 13.5008 23.7503 13.5H23.75H18.75C18.1294 13.5 17.6041 13.2818 17.1605 12.8382C16.717 12.3947 16.4993 11.8699 16.5 11.2503ZM16.5 23.7503V23.75V18.75C16.5 18.1294 16.7182 17.6041 17.1618 17.1605C17.6053 16.717 18.1301 16.4993 18.7497 16.5H18.75H23.75C24.3706 16.5 24.8959 16.7182 25.3395 17.1618C25.783 17.6053 26.0008 18.1301 26 18.7497V18.75V23.75C26 24.3706 25.7818 24.8959 25.3382 25.3395C24.8947 25.783 24.3699 26.0008 23.7503 26H23.75H18.75C18.1294 26 17.6041 25.7818 17.1605 25.3382C16.717 24.8947 16.4993 24.3699 16.5 23.7503ZM6 11.25V11.5H6.25H11.25H11.5V11.25V6.25V6H11.25H6.25H6V6.25V11.25ZM18.5 11.25V11.5H18.75H23.75H24V11.25V6.25V6H23.75H18.75H18.5V6.25V11.25ZM18.5 23.75V24H18.75H23.75H24V23.75V18.75V18.5H23.75H18.75H18.5V18.75V23.75ZM6 23.75V24H6.25H11.25H11.5V23.75V18.75V18.5H11.25H6.25H6V18.75V23.75Z" stroke="#C8C8C8" stroke-width="0.5"/>
</svg>
