<svg width="40" height="40" viewBox="0 0 40 40" fill="none" xmlns="http://www.w3.org/2000/svg">
<path fill-rule="evenodd" clip-rule="evenodd" d="M2 19.9997H4.778V33.9997C4.778 34.2649 4.88335 34.5193 5.07089 34.7068C5.25843 34.8944 5.51278 34.9997 5.778 34.9997H32.22C32.4852 34.9997 32.7396 34.8944 32.9271 34.7068C33.1146 34.5193 33.22 34.2649 33.22 33.9997V19.9997H36C36.203 19.9994 36.4011 19.9374 36.568 19.8218C36.7348 19.7062 36.8626 19.5425 36.9342 19.3526C37.0059 19.1627 37.018 18.9554 36.969 18.7584C36.92 18.5614 36.8122 18.384 36.66 18.2497L19.66 3.24971C19.4775 3.08939 19.2429 3.00098 19 3.00098C18.7571 3.00098 18.5225 3.08939 18.34 3.24971L1.34 18.2497C1.18775 18.384 1.07997 18.5614 1.03098 18.7584C0.982 18.9554 0.994132 19.1627 1.06577 19.3526C1.1374 19.5425 1.26515 19.7062 1.43202 19.8218C1.5989 19.9374 1.797 19.9994 2 19.9997ZM5.778 17.9997H4.644L19 5.33371L33.356 17.9997H32.222C31.9568 17.9997 31.7024 18.1051 31.5149 18.2926C31.3274 18.4801 31.222 18.7345 31.222 18.9997V32.9997H6.78V18.9997C6.78 18.7345 6.67464 18.4801 6.4871 18.2926C6.29957 18.1051 6.04521 17.9997 5.78 17.9997H5.778Z" fill="#20173C"/>
<path fill-rule="evenodd" clip-rule="evenodd" d="M21.416 23H16.416C15.8856 23 15.3768 23.2107 15.0018 23.5858C14.6267 23.9609 14.416 24.4696 14.416 25V33C14.416 33.5304 14.6267 34.0391 15.0018 34.4142C15.3768 34.7893 15.8856 35 16.416 35H21.416C21.9464 35 22.4551 34.7893 22.8302 34.4142C23.2053 34.0391 23.416 33.5304 23.416 33V25C23.416 24.4696 23.2053 23.9609 22.8302 23.5858C22.4551 23.2107 21.9464 23 21.416 23ZM16.416 33V25H21.416V33H16.416Z" fill="#20173C"/>
</svg>
