<svg width="100" height="100" viewBox="0 0 100 100" fill="none" xmlns="http://www.w3.org/2000/svg">
<g id="jam:pictures">
<path id="Vector" d="M16.6668 41.6663V83.333H66.6668V41.6663H16.6668ZM25.0002 33.333V16.6663C25.0002 14.4562 25.8781 12.3366 27.4409 10.7738C29.0037 9.21098 31.1234 8.33301 33.3335 8.33301H83.3335C85.5436 8.33301 87.6632 9.21098 89.2261 10.7738C90.7888 12.3366 91.6668 14.4562 91.6668 16.6663V58.333C91.6668 60.5431 90.7888 62.6628 89.2261 64.2256C87.6632 65.7884 85.5436 66.6663 83.3335 66.6663H75.0002V83.333C75.0002 85.5431 74.1222 87.6628 72.5594 89.2256C70.9966 90.7884 68.877 91.6663 66.6668 91.6663H16.6668C14.4567 91.6663 12.3371 90.7884 10.7743 89.2256C9.21147 87.6628 8.3335 85.5431 8.3335 83.333V41.6663C8.3335 39.4562 9.21147 37.3366 10.7743 35.7738C12.3371 34.211 14.4567 33.333 16.6668 33.333H25.0002ZM33.3335 33.333H66.6668C68.877 33.333 70.9966 34.211 72.5594 35.7738C74.1222 37.3366 75.0002 39.4562 75.0002 41.6663V58.333H83.3335V16.6663H33.3335V33.333ZM33.3335 70.833C30.0183 70.833 26.8389 69.516 24.4947 67.1718C22.1505 64.8276 20.8335 61.6482 20.8335 58.333C20.8335 55.0178 22.1505 51.8384 24.4947 49.4942C26.8389 47.15 30.0183 45.833 33.3335 45.833C36.6487 45.833 39.8281 47.15 42.1723 49.4942C44.5165 51.8384 45.8335 55.0178 45.8335 58.333C45.8335 61.6482 44.5165 64.8276 42.1723 67.1718C39.8281 69.516 36.6487 70.833 33.3335 70.833ZM33.3335 62.4997C34.4386 62.4997 35.4984 62.0607 36.2798 61.2793C37.0612 60.4979 37.5002 59.4381 37.5002 58.333C37.5002 57.2279 37.0612 56.1681 36.2798 55.3867C35.4984 54.6053 34.4386 54.1663 33.3335 54.1663C32.2284 54.1663 31.1686 54.6053 30.3872 55.3867C29.6058 56.1681 29.1668 57.2279 29.1668 58.333C29.1668 59.4381 29.6058 60.4979 30.3872 61.2793C31.1686 62.0607 32.2284 62.4997 33.3335 62.4997ZM37.5002 33.333C37.5002 30.0178 38.8171 26.8384 41.1613 24.4942C43.5055 22.15 46.685 20.833 50.0002 20.833C53.3154 20.833 56.4948 22.15 58.839 24.4942C61.1832 26.8384 62.5002 30.0178 62.5002 33.333H54.1668C54.1668 32.2279 53.7278 31.1681 52.9464 30.3867C52.165 29.6053 51.1052 29.1663 50.0002 29.1663C48.8951 29.1663 47.8353 29.6053 47.0539 30.3867C46.2725 31.1681 45.8335 32.2279 45.8335 33.333H37.5002ZM45.2668 89.658L38.0668 85.4622L49.421 65.9913C50.4066 64.3005 51.7754 62.8647 53.4173 61.7996C55.0592 60.7344 56.9283 60.0697 58.874 59.8589C60.8197 59.6481 62.7878 59.8971 64.6197 60.586C66.4516 61.2748 68.0962 62.3841 69.421 63.8247L73.9543 68.758L67.8168 74.3997L63.2877 69.4663C62.8459 68.9863 62.2975 68.6167 61.6867 68.3873C61.076 68.1579 60.4199 68.0751 59.7713 68.1457C59.1227 68.2162 58.4997 68.4381 57.9525 68.7934C57.4054 69.1487 56.9493 69.6275 56.621 70.1913L45.2668 89.658ZM72.4002 35.6163C74.7398 34.7134 77.2972 34.5365 79.7389 35.1088C82.1805 35.6811 84.393 36.9761 86.0877 38.8247L90.621 43.758L84.4835 49.3997L79.9543 44.4663C79.3393 43.7971 78.5223 43.3473 77.6278 43.1856C76.7334 43.0239 75.8106 43.159 75.0002 43.5705V41.6663C75.0002 39.2872 74.0002 37.133 72.4002 35.6163Z" fill="#20173C"/>
</g>
</svg>
