<svg width="32" height="30" viewBox="0 0 32 30" fill="none" xmlns="http://www.w3.org/2000/svg">
<path d="M14.0625 8.4375C14.0625 6.94566 13.4699 5.51492 12.415 4.46002C11.3601 3.40513 9.92934 2.8125 8.4375 2.8125C6.94566 2.8125 5.51492 3.40513 4.46002 4.46002C3.40513 5.51492 2.8125 6.94566 2.8125 8.4375C2.8125 9.92934 3.40513 11.3601 4.46002 12.415C5.51492 13.4699 6.94566 14.0625 8.4375 14.0625C9.92934 14.0625 11.3601 13.4699 12.415 12.415C13.4699 11.3601 14.0625 9.92934 14.0625 8.4375ZM16.6641 10.3125C15.8145 14.0684 12.4512 16.875 8.4375 16.875C3.7793 16.875 0 13.0957 0 8.4375C0 3.7793 3.7793 0 8.4375 0C12.4512 0 15.8145 2.80664 16.6641 6.5625H20.8711C21.3867 5.98828 22.1367 5.625 22.9688 5.625H29.0625C30.6152 5.625 31.875 6.88477 31.875 8.4375C31.875 9.99023 30.6152 11.25 29.0625 11.25H22.9688C22.1367 11.25 21.3867 10.8867 20.8711 10.3125H16.6641ZM8.4375 4.6875C9.43206 4.6875 10.3859 5.08259 11.0892 5.78585C11.7924 6.48911 12.1875 7.44294 12.1875 8.4375C12.1875 9.43206 11.7924 10.3859 11.0892 11.0892C10.3859 11.7924 9.43206 12.1875 8.4375 12.1875C7.44294 12.1875 6.48911 11.7924 5.78585 11.0892C5.08259 10.3859 4.6875 9.43206 4.6875 8.4375C4.6875 7.44294 5.08259 6.48911 5.78585 5.78585C6.48911 5.08259 7.44294 4.6875 8.4375 4.6875ZM23.4375 14.0625C24.2168 14.0625 24.8438 14.6895 24.8438 15.4688V15.9375H30.4688C31.248 15.9375 31.875 16.5645 31.875 17.3438C31.875 18.123 31.248 18.75 30.4688 18.75H16.4062C15.627 18.75 15 18.123 15 17.3438C15 16.5645 15.627 15.9375 16.4062 15.9375H22.0312V15.4688C22.0312 14.6895 22.6582 14.0625 23.4375 14.0625ZM16.875 27.1875V20.625H30V27.1875C30 28.7402 28.7402 30 27.1875 30H19.6875C18.1348 30 16.875 28.7402 16.875 27.1875ZM2.8125 18.75H10.3125C11.8652 18.75 13.125 20.0098 13.125 21.5625C13.125 23.1152 11.8652 24.375 10.3125 24.375H9.375C9.375 25.4121 8.53711 26.25 7.5 26.25H3.75C2.71289 26.25 1.875 25.4121 1.875 24.375V19.6875C1.875 19.1719 2.29687 18.75 2.8125 18.75ZM10.3125 22.5C10.8281 22.5 11.25 22.0781 11.25 21.5625C11.25 21.0469 10.8281 20.625 10.3125 20.625H9.375V22.5H10.3125ZM1.40625 27.1875H11.7188C12.498 27.1875 13.125 27.8145 13.125 28.5938C13.125 29.373 12.498 30 11.7188 30H1.40625C0.626953 30 0 29.373 0 28.5938C0 27.8145 0.626953 27.1875 1.40625 27.1875Z" fill="#20173C"/>
</svg>
