<svg width="30" height="30" viewBox="0 0 30 30" fill="none" xmlns="http://www.w3.org/2000/svg">
<path d="M10 15H11.25M20 15H15M20 10H18.75M15 10H10M10 20H16.25M3.75 17.5V12.5C3.75 7.78625 3.75 5.42875 5.215 3.965C6.67875 2.5 9.03625 2.5 13.75 2.5H16.25C20.9637 2.5 23.3212 2.5 24.785 3.965C25.6025 4.78125 25.9638 5.875 26.1225 7.5M26.25 12.5V17.5C26.25 22.2137 26.25 24.5712 24.785 26.035C23.3212 27.5 20.9637 27.5 16.25 27.5H13.75C9.03625 27.5 6.67875 27.5 5.215 26.035C4.3975 25.2187 4.03625 24.125 3.8775 22.5" stroke="#3A3153" stroke-width="1.5" stroke-linecap="round"/>
</svg>
