<svg width="30" height="30" viewBox="0 0 30 30" fill="none" xmlns="http://www.w3.org/2000/svg">
<path d="M25.4297 21.4454H23.3701C23.2295 21.4454 23.0976 21.5069 23.0097 21.6153C22.8047 21.8643 22.5849 22.1045 22.3535 22.3331C21.4069 23.2806 20.2856 24.0357 19.0517 24.5567C17.7734 25.0966 16.3994 25.3736 15.0117 25.3711C13.6084 25.3711 12.249 25.0957 10.9717 24.5567C9.73776 24.0357 8.6165 23.2806 7.6699 22.3331C6.72161 21.3887 5.96546 20.2694 5.44334 19.0372C4.90135 17.7598 4.62889 16.4034 4.62889 15C4.62889 13.5967 4.90428 12.2403 5.44334 10.9629C5.96482 9.72954 6.71482 8.61918 7.6699 7.66704C8.62498 6.71489 9.73533 5.96489 10.9717 5.4434C12.249 4.90434 13.6084 4.62895 15.0117 4.62895C16.415 4.62895 17.7744 4.90141 19.0517 5.4434C20.2881 5.96489 21.3984 6.71489 22.3535 7.66704C22.5849 7.89848 22.8017 8.13872 23.0097 8.38481C23.0976 8.49321 23.2324 8.55473 23.3701 8.55473H25.4297C25.6142 8.55473 25.7285 8.34965 25.626 8.19438C23.3789 4.70219 19.4472 2.39067 14.9795 2.40239C7.95994 2.41997 2.33201 8.11821 2.40232 15.129C2.47264 22.0284 8.09178 27.5977 15.0117 27.5977C19.4678 27.5977 23.3818 25.2891 25.626 21.8057C25.7256 21.6504 25.6142 21.4454 25.4297 21.4454ZM28.0342 14.8155L23.8769 11.5342C23.7217 11.4112 23.4961 11.5225 23.4961 11.7188V13.9454H14.2969C14.1679 13.9454 14.0625 14.0508 14.0625 14.1797V15.8204C14.0625 15.9493 14.1679 16.0547 14.2969 16.0547H23.4961V18.2813C23.4961 18.4776 23.7246 18.5889 23.8769 18.4659L28.0342 15.1846C28.0622 15.1627 28.0848 15.1347 28.1004 15.1027C28.116 15.0707 28.1241 15.0356 28.1241 15C28.1241 14.9645 28.116 14.9294 28.1004 14.8974C28.0848 14.8654 28.0622 14.8374 28.0342 14.8155Z" fill="#3A3153"/>
</svg>
