<svg width="40" height="40" viewBox="0 0 40 40" fill="none" xmlns="http://www.w3.org/2000/svg">
<path d="M20 2.17773C19.2992 3.00383 18.3717 3.85789 17.3721 4.78297C16.0622 5.99508 14.6381 7.30719 13.5088 8.66234C12.3797 10.0174 11.5657 11.4069 11.3799 12.7244C11.203 13.9786 11.5293 15.2087 12.8077 16.5716H27.1924C28.4707 15.2087 28.7971 13.9786 28.6202 12.7245C28.4342 11.4069 27.6203 10.0174 26.4911 8.66242C25.3619 7.30734 23.9378 5.99523 22.6278 4.78305C21.6284 3.85797 20.7008 3.00383 20 2.17773ZM2.5 5.32148C1.25 6.57148 1.25 7.82148 1.25 9.07148H1.79688V14.6184H1.25V16.0246H1.79688V37.8215H3.20312V16.0246H3.75V14.6184H3.20312V9.07148H3.75C3.75 7.82148 3.75 6.57148 2.5 5.32148ZM37.5 5.32148C36.25 6.57148 36.25 7.82148 36.25 9.07148H36.7969V14.6184H36.25V16.0246H36.7969V37.8215H38.2031V16.0246H38.75V14.6184H38.2031V9.07148H38.75C38.75 7.82148 38.75 6.57148 37.5 5.32148ZM8.75 16.0246C7.5 17.2746 6.25 18.5246 6.25 19.7746V21.5715H11.25V19.7746C11.25 18.5246 10 17.2746 8.75 16.0246ZM31.25 16.0246C30 17.2746 28.75 18.5246 28.75 19.7746V21.5715H33.75V19.7746C33.75 18.5246 32.5 17.2746 31.25 16.0246ZM13.2031 17.9777V19.0715H26.7969V17.9777H13.2031ZM13.2031 20.4777V37.8215H16.25V27.2746C16.25 26.0246 18.75 23.5246 20 22.2746C21.25 23.5246 23.75 26.0246 23.75 27.2746V37.8215H26.7969V20.4777H13.2031ZM5.70312 22.9777V37.8215H11.7969V22.9777H5.70312ZM28.2031 22.9777V37.8215H34.2969V22.9777H28.2031ZM8.75 23.5246C8.75 23.5246 10 24.1679 10 24.7746V27.2746H7.5V24.7746C7.5 24.1679 8.75 23.5246 8.75 23.5246ZM31.25 23.9515C31.25 23.9515 32.5 24.5947 32.5 25.2015V27.7015H30V25.2015C30 24.5947 31.25 23.9515 31.25 23.9515ZM8.75 28.5246C8.75 28.5246 10 29.1679 10 29.7746V32.2746H7.5V29.7746C7.5 29.1679 8.75 28.5246 8.75 28.5246ZM31.25 28.5246C31.25 28.5246 32.5 29.1679 32.5 29.7746V32.2746H30V29.7746C30 29.1679 31.25 28.5246 31.25 28.5246ZM8.75 33.5246C8.75 33.5246 10 34.1679 10 34.7746V37.2746H7.5V34.7746C7.5 34.1679 8.75 33.5246 8.75 33.5246ZM31.25 33.5246C31.25 33.5246 32.5 34.1679 32.5 34.7746V37.2746H30V34.7746C30 34.1679 31.25 33.5246 31.25 33.5246Z" fill="#20173C"/>
</svg>
