<svg width="30" height="30" viewBox="0 0 30 30" fill="none" xmlns="http://www.w3.org/2000/svg">
<path d="M18.75 0.9375C18.75 0.68886 18.8488 0.450403 19.0246 0.274587C19.2004 0.0987721 19.4389 0 19.6875 0L27.1875 0C27.4361 0 27.6746 0.0987721 27.8504 0.274587C28.0262 0.450403 28.125 0.68886 28.125 0.9375V10.3125C28.125 10.5611 28.0262 10.7996 27.8504 10.9754C27.6746 11.1512 27.4361 11.25 27.1875 11.25H24.375V27.1875C24.375 27.4361 24.2762 27.6746 24.1004 27.8504C23.9246 28.0262 23.6861 28.125 23.4375 28.125C23.1889 28.125 22.9504 28.0262 22.7746 27.8504C22.5988 27.6746 22.5 27.4361 22.5 27.1875V11.25H19.6875C19.4389 11.25 19.2004 11.1512 19.0246 10.9754C18.8488 10.7996 18.75 10.5611 18.75 10.3125V0.9375ZM9.97312 3.75H16.875V5.625H9.97312C9.51734 5.6249 9.07712 5.79082 8.73479 6.09174C8.39246 6.39265 8.17147 6.80796 8.11313 7.26L7.5975 11.25H17.0344C17.2283 11.7986 17.5877 12.2735 18.0628 12.6093C18.538 12.9451 19.1056 13.1253 19.6875 13.125H6.5625C6.31386 13.125 6.0754 13.2238 5.89959 13.3996C5.72377 13.5754 5.625 13.8139 5.625 14.0625V19.6875C5.625 19.9361 5.72377 20.1746 5.89959 20.3504C6.0754 20.5262 6.31386 20.625 6.5625 20.625H20.625V22.5H9.375V24.8438C9.375 25.2167 9.22684 25.5744 8.96312 25.8381C8.6994 26.1018 8.34171 26.25 7.96875 26.25C7.59579 26.25 7.2381 26.1018 6.97438 25.8381C6.71066 25.5744 6.5625 25.2167 6.5625 24.8438V22.5C5.81658 22.5 5.10121 22.2037 4.57376 21.6762C4.04632 21.1488 3.75 20.4334 3.75 19.6875V14.0625C3.74991 13.4693 3.93737 12.8913 4.28558 12.4111C4.63379 11.9309 5.12492 11.573 5.68875 11.3888L5.7075 11.25H4.6875C4.43886 11.25 4.2004 11.1512 4.02459 10.9754C3.84877 10.7996 3.75 10.5611 3.75 10.3125C3.75 10.0639 3.84877 9.8254 4.02459 9.64959C4.2004 9.47377 4.43886 9.375 4.6875 9.375H5.94938L6.25313 7.02C6.36985 6.11561 6.81211 5.28473 7.49716 4.68285C8.18221 4.08098 9.06311 3.74934 9.975 3.75H9.97312ZM20.1544 15.4706C20.3194 15.4706 20.4769 15.4987 20.625 15.5512V18.1988C20.4131 18.2746 20.186 18.2983 19.963 18.2679C19.7399 18.2375 19.5275 18.1538 19.3436 18.024C19.1597 17.8942 19.0098 17.722 18.9065 17.522C18.8031 17.322 18.7495 17.1001 18.75 16.875C18.75 16.0987 19.3781 15.4706 20.1544 15.4706ZM11.25 16.875C11.25 17.0594 11.2137 17.242 11.1431 17.4124C11.0725 17.5828 10.9691 17.7376 10.8387 17.868C10.7083 17.9985 10.5534 18.1019 10.3831 18.1725C10.2127 18.243 10.03 18.2794 9.84562 18.2794C9.6612 18.2794 9.47858 18.243 9.30819 18.1725C9.13781 18.1019 8.98299 17.9985 8.85258 17.868C8.72217 17.7376 8.61873 17.5828 8.54815 17.4124C8.47758 17.242 8.44125 17.0594 8.44125 16.875C8.44125 16.5025 8.58921 16.1453 8.85258 15.882C9.11595 15.6186 9.47316 15.4706 9.84562 15.4706C10.2181 15.4706 10.5753 15.6186 10.8387 15.882C11.102 16.1453 11.25 16.5025 11.25 16.875Z" fill="#20173C"/>
</svg>
