<svg width="30" height="30" viewBox="0 0 30 30" fill="none" xmlns="http://www.w3.org/2000/svg">
<path d="M10.5 13.5C10.5 12.7044 10.8161 11.9413 11.3787 11.3787C11.9413 10.8161 12.7044 10.5 13.5 10.5C14.2956 10.5 15.0587 10.8161 15.6213 11.3787C16.1839 11.9413 16.5 12.7044 16.5 13.5C16.5 14.2956 16.1839 15.0587 15.6213 15.6213C15.0587 16.1839 14.2956 16.5 13.5 16.5C12.7044 16.5 11.9413 16.1839 11.3787 15.6213C10.8161 15.0587 10.5 14.2956 10.5 13.5ZM13.5 12C13.1022 12 12.7206 12.158 12.4393 12.4393C12.158 12.7206 12 13.1022 12 13.5C12 13.8978 12.158 14.2794 12.4393 14.5607C12.7206 14.842 13.1022 15 13.5 15C13.8978 15 14.2794 14.842 14.5607 14.5607C14.842 14.2794 15 13.8978 15 13.5C15 13.1022 14.842 12.7206 14.5607 12.4393C14.2794 12.158 13.8978 12 13.5 12ZM5.25 6C4.65326 6 4.08097 6.23705 3.65901 6.65901C3.23705 7.08097 3 7.65326 3 8.25V18.75C3 19.3467 3.23705 19.919 3.65901 20.341C4.08097 20.7629 4.65326 21 5.25 21H21.75C22.3467 21 22.919 20.7629 23.341 20.341C23.7629 19.919 24 19.3467 24 18.75V8.25C24 7.65326 23.7629 7.08097 23.341 6.65901C22.919 6.23705 22.3467 6 21.75 6H5.25ZM4.5 8.25C4.5 8.05109 4.57902 7.86032 4.71967 7.71967C4.86032 7.57902 5.05109 7.5 5.25 7.5H7.5V9C7.5 9.39782 7.34196 9.77936 7.06066 10.0607C6.77936 10.342 6.39782 10.5 6 10.5H4.5V8.25ZM4.5 12H6C6.79565 12 7.55871 11.6839 8.12132 11.1213C8.68393 10.5587 9 9.79565 9 9V7.5H18V9C18 9.79565 18.3161 10.5587 18.8787 11.1213C19.4413 11.6839 20.2044 12 21 12H22.5V15H21C20.2044 15 19.4413 15.3161 18.8787 15.8787C18.3161 16.4413 18 17.2044 18 18V19.5H9V18C9 17.2044 8.68393 16.4413 8.12132 15.8787C7.55871 15.3161 6.79565 15 6 15H4.5V12ZM19.5 7.5H21.75C21.9489 7.5 22.1397 7.57902 22.2803 7.71967C22.421 7.86032 22.5 8.05109 22.5 8.25V10.5H21C20.6022 10.5 20.2206 10.342 19.9393 10.0607C19.658 9.77936 19.5 9.39782 19.5 9V7.5ZM22.5 16.5V18.75C22.5 18.9489 22.421 19.1397 22.2803 19.2803C22.1397 19.421 21.9489 19.5 21.75 19.5H19.5V18C19.5 17.6022 19.658 17.2206 19.9393 16.9393C20.2206 16.658 20.6022 16.5 21 16.5H22.5ZM7.5 19.5H5.25C5.05109 19.5 4.86032 19.421 4.71967 19.2803C4.57902 19.1397 4.5 18.9489 4.5 18.75V16.5H6C6.39782 16.5 6.77936 16.658 7.06066 16.9393C7.34196 17.2206 7.5 17.6022 7.5 18V19.5ZM25.5 18.75C25.5 19.7446 25.1049 20.6984 24.4016 21.4017C23.6984 22.1049 22.7446 22.5 21.75 22.5H6.1275C6.28266 22.9389 6.57012 23.3188 6.95026 23.5875C7.3304 23.8561 7.78451 24.0002 8.25 24H21.75C23.1424 24 24.4777 23.4469 25.4623 22.4623C26.4469 21.4777 27 20.1424 27 18.75V11.25C27.0002 10.7845 26.8561 10.3304 26.5875 9.95026C26.3188 9.57012 25.9389 9.28266 25.5 9.1275V18.75Z" fill="#3A3153"/>
</svg>
