<svg width="24" height="24" viewBox="0 0 24 24" fill="none" xmlns="http://www.w3.org/2000/svg">
<path d="M13.1 23.0005C11.7 23.0005 10.3877 22.7338 9.163 22.2005C7.93833 21.6671 6.87167 20.9461 5.963 20.0375C5.05433 19.1295 4.33333 18.0628 3.8 16.8375C3.26667 15.6121 3 14.2998 3 12.9005C3 10.7671 3.6 8.8338 4.8 7.10046C6 5.36713 7.60833 4.15046 9.625 3.45046C9.99167 3.31713 10.3333 3.3628 10.65 3.58746C10.9667 3.81213 11.1167 4.11646 11.1 4.50046C11.05 5.91713 11.275 7.26713 11.775 8.55046C12.275 9.8338 13.025 10.9755 14.025 11.9755C15.025 12.9755 16.1667 13.7255 17.45 14.2255C18.7333 14.7255 20.0833 14.9505 21.5 14.9005C21.9333 14.8838 22.2543 15.0298 22.463 15.3385C22.6717 15.6471 22.709 15.9928 22.575 16.3755C21.8417 18.3755 20.6127 19.9798 18.888 21.1885C17.1633 22.3971 15.234 23.0011 13.1 23.0005ZM13.1 21.0005C14.5667 21.0005 15.925 20.6338 17.175 19.9005C18.425 19.1671 19.4083 18.1588 20.125 16.8755C18.6917 16.7421 17.3333 16.3795 16.05 15.7875C14.7667 15.1955 13.6167 14.3915 12.6 13.3755C11.5833 12.3588 10.775 11.2088 10.175 9.92546C9.575 8.64213 9.21667 7.2838 9.1 5.85046C7.81667 6.56713 6.81267 7.5548 6.088 8.81346C5.36333 10.0721 5.00067 11.4345 5 12.9005C5 15.1505 5.78767 17.0631 7.363 18.6385C8.93833 20.2138 10.8507 21.0011 13.1 21.0005Z" fill="#20173C"/>
</svg>
