<svg width="50" height="50" viewBox="0 0 50 50" fill="none" xmlns="http://www.w3.org/2000/svg">
<path id="Icon" d="M36.2 49H11.4837C9.86815 49 9.06039 49 8.68635 48.6805C8.36181 48.4034 8.18958 47.9875 8.22306 47.5621C8.26166 47.0717 8.83282 46.5005 9.97516 45.3582L32.6497 22.6837C33.7057 21.6276 34.2337 21.0996 34.8426 20.9018C35.3782 20.7277 35.9551 20.7277 36.4907 20.9018C37.0996 21.0996 37.6276 21.6276 38.6837 22.6837L49 33V36.2M36.2 49C40.6804 49 42.9206 49 44.6319 48.1281C46.1372 47.3611 47.3611 46.1372 48.1281 44.6319C49 42.9206 49 40.6804 49 36.2M36.2 49H13.8C9.31958 49 7.07937 49 5.36808 48.1281C3.86278 47.3611 2.63893 46.1372 1.87195 44.6319C1 42.9206 1 40.6804 1 36.2V13.8C1 9.31958 1 7.07937 1.87195 5.36808C2.63893 3.86278 3.86278 2.63893 5.36808 1.87195C7.07937 1 9.31958 1 13.8 1H36.2C40.6804 1 42.9206 1 44.6319 1.87195C46.1372 2.63893 47.3611 3.86278 48.1281 5.36808C49 7.07937 49 9.31958 49 13.8V36.2M21 15.6667C21 18.6122 18.6122 21 15.6667 21C12.7211 21 10.3333 18.6122 10.3333 15.6667C10.3333 12.7211 12.7211 10.3333 15.6667 10.3333C18.6122 10.3333 21 12.7211 21 15.6667Z" stroke="#444444" stroke-linecap="round" stroke-linejoin="round"/>
</svg>
