<svg width="17" height="20" viewBox="0 0 17 20" fill="none" xmlns="http://www.w3.org/2000/svg">
<path d="M14.5455 1.81818V18.1818H9.09091V15H7.27273V18.1818H1.81818V1.81818H14.5455ZM10.9091 5.45455H12.7273V3.63636H10.9091V5.45455ZM7.27273 5.45455H9.09091V3.63636H7.27273V5.45455ZM3.63636 5.45455H5.45455V3.63636H3.63636V5.45455ZM10.9091 9.09091H12.7273V7.27273H10.9091V9.09091ZM7.27273 9.09091H9.09091V7.27273H7.27273V9.09091ZM3.63636 9.09091H5.45455V7.27273H3.63636V9.09091ZM10.9091 12.7273H12.7273V10.9091H10.9091V12.7273ZM7.27273 12.7273H9.09091V10.9091H7.27273V12.7273ZM3.63636 12.7273H5.45455V10.9091H3.63636V12.7273ZM10.9091 16.3636H12.7273V14.5455H10.9091V16.3636ZM3.63636 16.3636H5.45455V14.5455H3.63636V16.3636ZM16.3636 0H0V20H16.3636V0Z" fill="#C8C8C8"/>
</svg>
