<svg width="40" height="40" viewBox="0 0 40 40" fill="none" xmlns="http://www.w3.org/2000/svg">
<g id="fluent:swimming-pool-24-regular">
<path id="Vector" d="M9.16667 9.58333C9.16667 9.0308 9.38616 8.5009 9.77686 8.11019C10.1676 7.71949 10.6975 7.5 11.25 7.5C11.8025 7.5 12.3324 7.71949 12.7231 8.11019C13.1138 8.5009 13.3333 9.0308 13.3333 9.58333V20.06C14.1283 20.135 14.9633 20.2817 15.8333 20.5167V18.3333H26.6667V24.1667C27.5101 24.153 28.3491 24.0411 29.1667 23.8333V9.58333C29.1667 8.36776 28.6838 7.20197 27.8242 6.34243C26.9647 5.48289 25.7989 5 24.5833 5C23.3678 5 22.202 5.48289 21.3424 6.34243C20.4829 7.20197 20 8.36776 20 9.58333V10.4167C20 10.7482 20.1317 11.0661 20.3661 11.3005C20.6005 11.535 20.9185 11.6667 21.25 11.6667C21.5815 11.6667 21.8995 11.535 22.1339 11.3005C22.3683 11.0661 22.5 10.7482 22.5 10.4167V9.58333C22.5 9.0308 22.7195 8.5009 23.1102 8.11019C23.5009 7.71949 24.0308 7.5 24.5833 7.5C25.1359 7.5 25.6658 7.71949 26.0565 8.11019C26.4472 8.5009 26.6667 9.0308 26.6667 9.58333V15.8333H15.8333V9.58333C15.8333 8.36776 15.3505 7.20197 14.4909 6.34243C13.6314 5.48289 12.4656 5 11.25 5C10.0344 5 8.86864 5.48289 8.0091 6.34243C7.14956 7.20197 6.66667 8.36776 6.66667 9.58333V10.4167C6.66667 10.7482 6.79837 11.0661 7.03279 11.3005C7.26721 11.535 7.58515 11.6667 7.91667 11.6667C8.24819 11.6667 8.56613 11.535 8.80055 11.3005C9.03497 11.0661 9.16667 10.7482 9.16667 10.4167V9.58333ZM7.13334 25.8767C6.89859 26.1056 6.58331 26.2331 6.25544 26.2317C5.92757 26.2303 5.61337 26.1002 5.38054 25.8693C5.14772 25.6385 5.01492 25.3254 5.01077 24.9975C5.00661 24.6697 5.13144 24.3533 5.35834 24.1167H5.36V24.115L5.365 24.1117L5.37167 24.1033L5.39167 24.085C5.47649 24.0006 5.56549 23.9205 5.65834 23.845C5.89732 23.6466 6.14775 23.4624 6.40834 23.2933C7.27673 22.7297 8.22836 22.3062 9.22834 22.0383C11.7217 21.3617 15.2333 21.4117 19.5617 23.8833C23.405 26.08 26.7833 26.07 29.19 25.5383C30.1793 25.3221 31.1385 24.9863 32.0467 24.5383C32.38 24.3724 32.7033 24.1871 33.015 23.9833L33.0167 23.9817L33.02 23.98C33.289 23.7916 33.6213 23.7166 33.9452 23.7712C34.269 23.8259 34.5584 24.0058 34.7506 24.2721C34.9429 24.5383 35.0226 24.8696 34.9726 25.1942C34.9226 25.5188 34.7468 25.8106 34.4833 26.0067H34.4817L34.4783 26.01L34.47 26.015L34.4467 26.0317C34.3374 26.1094 34.2251 26.1828 34.11 26.2517C33.8014 26.4409 33.4844 26.6161 33.16 26.7767C32.0687 27.3158 30.9158 27.7199 29.7267 27.98C26.8067 28.6233 22.78 28.6017 18.3217 26.055C14.54 23.895 11.705 23.955 9.88167 24.45C9.13547 24.649 8.42515 24.964 7.77667 25.3833C7.55777 25.5265 7.34945 25.6853 7.15334 25.8583L7.13334 25.8767ZM5.37334 32.5517C5.6086 32.7831 5.92586 32.9121 6.25589 32.9106C6.58592 32.909 6.90194 32.777 7.135 32.5433L7.15334 32.5267C7.175 32.5067 7.21167 32.4717 7.265 32.4267C7.37334 32.3367 7.545 32.2033 7.77667 32.05C8.24334 31.745 8.95 31.37 9.88167 31.1167C11.7067 30.6233 14.54 30.5617 18.3217 32.7217C22.78 35.2683 26.805 35.29 29.7283 34.6467C30.9174 34.3866 32.0704 33.9825 33.1617 33.4433C33.5781 33.2358 33.9821 33.0043 34.3717 32.75L34.4467 32.7L34.47 32.6833L34.4783 32.6767L34.4817 32.675L34.4833 32.6733C34.7468 32.4773 34.9226 32.1854 34.9726 31.8608C35.0226 31.5362 34.9429 31.205 34.7506 30.9387C34.5584 30.6724 34.269 30.4925 33.9452 30.4379C33.6213 30.3832 33.289 30.4582 33.02 30.6467H33.0167L33.015 30.65C32.7033 30.8538 32.38 31.0391 32.0467 31.205C31.38 31.5367 30.4033 31.9383 29.19 32.205C26.7833 32.7367 23.4067 32.7467 19.5617 30.5517C15.2333 28.0783 11.7217 28.0283 9.22834 28.705C8 29.0383 7.05334 29.5367 6.40834 29.96C6.07189 30.1799 5.75263 30.425 5.45334 30.6933C5.43255 30.7125 5.41199 30.732 5.39167 30.7517L5.37167 30.77L5.365 30.7783L5.36167 30.7817L5.35834 30.7833C5.12623 31.0197 4.99744 31.3385 5.00025 31.6698C5.00306 32.001 5.13725 32.3193 5.37334 32.5517Z" fill="#3A3153"/>
</g>
</svg>
