<svg width="30" height="30" viewBox="0 0 30 30" fill="none" xmlns="http://www.w3.org/2000/svg">
<path d="M15 1.25L3.75 6.25V13.75C3.75 20.6875 8.55 27.175 15 28.75C21.45 27.175 26.25 20.6875 26.25 13.75V6.25L15 1.25ZM15 3.975L23.75 7.875V14.025C23.75 16.15 23.125 18.3125 22.0625 20.2125C20 18.675 16.575 18.125 15 18.125C13.425 18.125 10 18.675 7.9375 20.2125C6.875 18.3125 6.25 16.15 6.25 14.025V7.875L15 3.975ZM15 7.5C13.8397 7.5 12.7269 7.96094 11.9064 8.78141C11.0859 9.60188 10.625 10.7147 10.625 11.875C10.625 13.0353 11.0859 14.1481 11.9064 14.9686C12.7269 15.7891 13.8397 16.25 15 16.25C16.1603 16.25 17.2731 15.7891 18.0936 14.9686C18.9141 14.1481 19.375 13.0353 19.375 11.875C19.375 10.7147 18.9141 9.60188 18.0936 8.78141C17.2731 7.96094 16.1603 7.5 15 7.5ZM15 10C15.4973 10 15.9742 10.1975 16.3258 10.5492C16.6775 10.9008 16.875 11.3777 16.875 11.875C16.875 12.3723 16.6775 12.8492 16.3258 13.2008C15.9742 13.5525 15.4973 13.75 15 13.75C14.5027 13.75 14.0258 13.5525 13.6742 13.2008C13.3225 12.8492 13.125 12.3723 13.125 11.875C13.125 11.3777 13.3225 10.9008 13.6742 10.5492C14.0258 10.1975 14.5027 10 15 10ZM15 20.625C16.9625 20.625 19.55 21.3875 20.6625 22.3C19.1125 24.225 17.125 25.6875 15 26.25C12.875 25.6875 10.8875 24.225 9.3375 22.3C10.4625 21.3875 13.0375 20.625 15 20.625Z" fill="#3A3153"/>
</svg>
