<svg width="30" height="30" viewBox="0 0 30 30" fill="none" xmlns="http://www.w3.org/2000/svg">
<path d="M15.2579 22.4155L14.9999 22.26L14.7419 22.4155L9.55442 25.5405L9.55434 25.5403L9.54398 25.5469C9.39891 25.6392 9.2671 25.669 9.1352 25.658C8.97615 25.6447 8.85093 25.5944 8.74439 25.5116C8.61985 25.4147 8.52293 25.2944 8.45151 25.1441C8.4026 25.0412 8.3837 24.9142 8.42454 24.7378L9.7994 18.8321L9.8679 18.5379L9.6393 18.3404L5.04974 14.3753C4.9104 14.2488 4.84374 14.1255 4.81747 14.0035C4.78534 13.8542 4.79488 13.7156 4.84499 13.5766C4.90248 13.4188 4.98231 13.3048 5.07917 13.22C5.15116 13.157 5.27655 13.0923 5.49554 13.0593L11.5436 12.5293L11.8437 12.503L11.9607 12.2254L14.3044 6.6629L14.3052 6.66106C14.3702 6.50517 14.4606 6.40663 14.5764 6.34057C14.7282 6.25398 14.8674 6.21875 14.9999 6.21875C15.1336 6.21875 15.2724 6.25412 15.4227 6.34017C15.5382 6.40624 15.6292 6.50526 15.6952 6.66237L15.6954 6.66289L18.0392 12.2254L18.1561 12.503L18.4563 12.5293L24.5043 13.0593C24.7233 13.0923 24.8487 13.157 24.9207 13.22C25.0176 13.3049 25.0975 13.419 25.155 13.5771C25.206 13.7172 25.2156 13.8561 25.1836 14.0048C25.1575 14.1261 25.0909 14.2488 24.951 14.3745L20.3605 18.3404L20.1319 18.5379L20.2004 18.8321L21.5752 24.7374C21.6162 24.9151 21.5972 25.0426 21.5483 25.1454C21.477 25.2954 21.3804 25.4149 21.2565 25.5107L21.2555 25.5116C21.1489 25.5944 21.0237 25.6447 20.8646 25.658C20.7327 25.669 20.6009 25.6392 20.4559 25.5469L20.4559 25.5468L20.4454 25.5405L15.2579 22.4155Z" stroke="white"/>
</svg>
