<svg width="24" height="24" viewBox="0 0 24 24" fill="none" xmlns="http://www.w3.org/2000/svg">
<path d="M12.258 17.8467L12 17.6912L11.742 17.8467L7.59199 20.3467L7.59191 20.3465L7.58156 20.3531C7.48231 20.4163 7.39842 20.4335 7.31652 20.4267C7.20747 20.4176 7.126 20.384 7.05696 20.3303C6.96992 20.2626 6.90217 20.1788 6.85158 20.0723C6.82352 20.0133 6.8088 19.9353 6.83704 19.813C6.83707 19.8129 6.83709 19.8128 6.83711 19.8127L7.93697 15.0883L8.00547 14.7941L7.77687 14.5966L4.10616 11.4253C4.00855 11.3365 3.96776 11.2559 3.95179 11.1817C3.92999 11.0804 3.93645 10.9886 3.97009 10.8953C4.0109 10.7833 4.06572 10.7068 4.12925 10.6512C4.16828 10.6171 4.24817 10.5713 4.40837 10.5468L9.24364 10.123L9.54378 10.0967L9.66076 9.8191L11.5358 5.3691L11.5365 5.36726C11.5807 5.26137 11.6387 5.20033 11.7107 5.15928L11.4649 4.72821L11.7107 5.15928C11.8187 5.09768 11.9131 5.07495 12 5.07495C12.0878 5.07495 12.1819 5.09782 12.2886 5.15887C12.3603 5.19994 12.419 5.26146 12.464 5.36857L12.4642 5.3691L14.3392 9.8191L14.4562 10.0967L14.7563 10.123L19.5916 10.5468C19.7518 10.5713 19.8317 10.6171 19.8707 10.6512C19.9344 10.7069 19.9893 10.7835 20.0301 10.8958C20.0644 10.9901 20.0709 11.082 20.0492 11.1827C20.0334 11.2562 19.9928 11.3362 19.8947 11.4245L16.2231 14.5966L15.9945 14.7941L16.063 15.0883L17.1628 19.8124C17.1628 19.8126 17.1629 19.8128 17.1629 19.813C17.1913 19.9362 17.1764 20.0145 17.1484 20.0733C17.0979 20.1795 17.0305 20.2626 16.9441 20.3294L16.943 20.3303C16.874 20.384 16.7925 20.4176 16.6835 20.4267C16.6016 20.4335 16.5177 20.4163 16.4184 20.3531L16.4185 20.353L16.408 20.3467L12.258 17.8467Z" fill="#3A3153" stroke="#3A3153"/>
</svg>
