<svg width="30" height="30" viewBox="0 0 30 30" fill="none" xmlns="http://www.w3.org/2000/svg">
<path d="M17.5426 3.47255C17.9787 3.35573 18.4335 3.32595 18.8811 3.38491C19.3286 3.44388 19.7602 3.59043 20.1512 3.81619C20.5421 4.04196 20.8848 4.34252 21.1595 4.70071C21.4343 5.0589 21.6358 5.46771 21.7526 5.9038L25.1501 18.5813C25.2669 19.0174 25.2967 19.4722 25.2377 19.9198C25.1788 20.3673 25.0322 20.7989 24.8065 21.1899C24.5807 21.5808 24.2801 21.9234 23.9219 22.1982C23.5638 22.473 23.1549 22.6745 22.7189 22.7913L14.8714 24.8938C13.9908 25.1298 13.0527 25.0063 12.2631 24.5506C11.4736 24.0949 10.8975 23.3443 10.6614 22.4638L7.26261 9.78505C7.14581 9.34889 7.11609 8.894 7.17513 8.44636C7.23418 7.99871 7.38083 7.56709 7.60672 7.17613C7.83261 6.78518 8.13331 6.44256 8.49164 6.16784C8.84997 5.89312 9.25891 5.69169 9.69511 5.57505L17.5426 3.47255ZM7.25136 14.5725L9.45386 22.7863C9.67046 23.6 10.1033 24.3399 10.7064 24.9275L10.1526 24.8988C9.24228 24.851 8.38822 24.4435 7.77827 23.7661C7.16833 23.0886 6.85245 22.1966 6.90011 21.2863L7.25136 14.5738V14.5725ZM18.0276 5.2838L10.1801 7.3863C9.98189 7.43939 9.79606 7.531 9.63325 7.65591C9.47044 7.78083 9.33383 7.93658 9.23122 8.1143C9.12861 8.29201 9.06201 8.48819 9.03522 8.69164C9.00844 8.8951 9.02199 9.10183 9.07511 9.30005L12.4726 21.9775C12.5798 22.3776 12.8415 22.7187 13.2001 22.9259C13.5588 23.1331 13.985 23.1894 14.3851 23.0825L22.2339 20.98C22.4321 20.927 22.6179 20.8353 22.7807 20.7104C22.9435 20.5855 23.0801 20.4298 23.1827 20.252C23.2854 20.0743 23.352 19.8782 23.3787 19.6747C23.4055 19.4712 23.392 19.2645 23.3389 19.0663L19.9414 6.3888C19.8341 5.98875 19.5724 5.64764 19.2138 5.44044C18.8552 5.23324 18.429 5.1769 18.0289 5.2838H18.0276ZM6.09511 12.725L5.65136 21.22C5.60511 22.0938 5.80136 22.9238 6.18136 23.645L5.66386 23.445C5.24238 23.2833 4.8569 23.0401 4.52941 22.7294C4.20193 22.4186 3.93886 22.0464 3.75523 21.634C3.5716 21.2216 3.471 20.777 3.45919 20.3257C3.44737 19.8745 3.52456 19.4253 3.68636 19.0038L6.09511 12.725ZM12.1751 8.7938C12.3337 8.75128 12.4991 8.74041 12.6618 8.76182C12.8246 8.78322 12.9816 8.83647 13.1238 8.91854C13.266 9.0006 13.3906 9.10987 13.4905 9.2401C13.5905 9.37033 13.6638 9.51897 13.7064 9.67755C13.7489 9.83612 13.7597 10.0015 13.7383 10.1643C13.7169 10.3271 13.6637 10.484 13.5816 10.6262C13.4996 10.7684 13.3903 10.893 13.2601 10.993C13.1298 11.0929 12.9812 11.1663 12.8226 11.2088C12.5024 11.2947 12.1611 11.2498 11.874 11.0841C11.5868 10.9183 11.3772 10.6453 11.2914 10.325C11.2055 10.0048 11.2504 9.66356 11.4161 9.37639C11.5818 9.08923 11.8549 8.87966 12.1751 8.7938Z" fill="#20173C"/>
</svg>
