<svg width="22" height="22" viewBox="0 0 22 22" fill="none" xmlns="http://www.w3.org/2000/svg">
<path d="M1 11C1 12.9778 1.58649 14.9112 2.6853 16.5557C3.78412 18.2002 5.3459 19.4819 7.17316 20.2388C9.00042 20.9957 11.0111 21.1937 12.9509 20.8078C14.8907 20.422 16.6725 19.4696 18.0711 18.0711C19.4696 16.6725 20.422 14.8907 20.8078 12.9509C21.1937 11.0111 20.9957 9.00043 20.2388 7.17317C19.4819 5.34591 18.2002 3.78412 16.5557 2.68531C14.9112 1.5865 12.9778 1.00001 11 1.00001C8.13534 0.996836 5.37991 2.09901 3.30769 4.07693" stroke="#C8C8C8" stroke-linecap="round" stroke-linejoin="round"/>
<path d="M4.07694 1L3.30771 4.07692L6.38463 4.84615M11 5.61538V11.7692L7.00002 13.7692" stroke="#C8C8C8" stroke-linecap="round" stroke-linejoin="round"/>
</svg>
