<svg width="30" height="30" viewBox="0 0 30 30" fill="none" xmlns="http://www.w3.org/2000/svg">
<path d="M7.5 17.5C7.5 18.5833 7.71875 19.6096 8.15625 20.5787C8.59375 21.5479 9.21875 22.3967 10.0312 23.125C10.0104 23.0208 10 22.9271 10 22.8438V22.5625C10 21.8958 10.125 21.2708 10.375 20.6875C10.625 20.1042 10.9896 19.5729 11.4688 19.0938L15 15.625L18.5312 19.0938C19.0104 19.5729 19.375 20.1042 19.625 20.6875C19.875 21.2708 20 21.8958 20 22.5625V22.8438C20 22.9271 19.9896 23.0208 19.9688 23.125C20.7812 22.3958 21.4062 21.5467 21.8438 20.5775C22.2812 19.6083 22.5 18.5825 22.5 17.5C22.5 16.4583 22.3071 15.4738 21.9213 14.5463C21.5354 13.6188 20.9783 12.7908 20.25 12.0625C19.8333 12.3333 19.3958 12.5367 18.9375 12.6725C18.4792 12.8083 18.0104 12.8758 17.5312 12.875C16.2396 12.875 15.1196 12.4479 14.1712 11.5937C13.2229 10.7396 12.6762 9.6875 12.5312 8.4375C11.7187 9.125 11 9.83875 10.375 10.5788C9.75 11.3188 9.22375 12.0687 8.79625 12.8287C8.36958 13.5887 8.04708 14.3646 7.82875 15.1562C7.61042 15.9479 7.50083 16.7292 7.5 17.5ZM15 19.125L13.2188 20.875C12.9896 21.1042 12.8125 21.3646 12.6875 21.6562C12.5625 21.9479 12.5 22.25 12.5 22.5625C12.5 23.2292 12.7446 23.8021 13.2337 24.2812C13.7229 24.7604 14.3117 25 15 25C15.6875 25 16.2758 24.7604 16.765 24.2812C17.2542 23.8021 17.4992 23.2292 17.5 22.5625C17.5 22.2292 17.4375 21.9217 17.3125 21.64C17.1875 21.3583 17.0104 21.1033 16.7812 20.875L15 19.125ZM15 3.75V7.875C15 8.58333 15.245 9.17708 15.735 9.65625C16.225 10.1354 16.8237 10.375 17.5312 10.375C17.9062 10.375 18.2554 10.2967 18.5787 10.14C18.9021 9.98333 19.1883 9.74917 19.4375 9.4375L20 8.75C21.5417 9.625 22.7604 10.8438 23.6562 12.4062C24.5521 13.9688 25 15.6667 25 17.5C25 20.2917 24.0312 22.6562 22.0938 24.5938C20.1562 26.5312 17.7917 27.5 15 27.5C12.2083 27.5 9.84375 26.5312 7.90625 24.5938C5.96875 22.6562 5 20.2917 5 17.5C5 14.8125 5.90083 12.2604 7.7025 9.84375C9.50417 7.42708 11.9367 5.39583 15 3.75Z" fill="#C8C8C8"/>
</svg>
