<svg width="80" height="80" viewBox="0 0 80 80" fill="none" xmlns="http://www.w3.org/2000/svg">
<path d="M35.3334 55.3332L58.8334 31.8332L54.1667 27.1665L35.3334 45.9998L25.8334 36.4998L21.1667 41.1665L35.3334 55.3332ZM40 73.3332C35.3889 73.3332 31.0556 72.4576 27 70.7065C22.9445 68.9554 19.4167 66.5809 16.4167 63.5832C13.4167 60.5832 11.0422 57.0554 9.29335 52.9998C7.54447 48.9443 6.66891 44.6109 6.66669 39.9998C6.66669 35.3887 7.54224 31.0554 9.29335 26.9998C11.0445 22.9443 13.4189 19.4165 16.4167 16.4165C19.4167 13.4165 22.9445 11.0421 27 9.29317C31.0556 7.54428 35.3889 6.66873 40 6.6665C44.6111 6.6665 48.9445 7.54206 53 9.29317C57.0556 11.0443 60.5834 13.4187 63.5834 16.4165C66.5834 19.4165 68.9589 22.9443 70.71 26.9998C72.4611 31.0554 73.3356 35.3887 73.3334 39.9998C73.3334 44.6109 72.4578 48.9443 70.7067 52.9998C68.9556 57.0554 66.5811 60.5832 63.5834 63.5832C60.5834 66.5832 57.0556 68.9587 53 70.7098C48.9445 72.4609 44.6111 73.3354 40 73.3332ZM40 66.6665C47.4445 66.6665 53.75 64.0832 58.9167 58.9165C64.0834 53.7498 66.6667 47.4443 66.6667 39.9998C66.6667 32.5554 64.0834 26.2498 58.9167 21.0832C53.75 15.9165 47.4445 13.3332 40 13.3332C32.5556 13.3332 26.25 15.9165 21.0834 21.0832C15.9167 26.2498 13.3334 32.5554 13.3334 39.9998C13.3334 47.4443 15.9167 53.7498 21.0834 58.9165C26.25 64.0832 32.5556 66.6665 40 66.6665Z" fill="#3B6D33"/>
</svg>
