<svg width="30" height="30" viewBox="0 0 30 30" fill="none" xmlns="http://www.w3.org/2000/svg">
<path d="M5 27.5H25C25.3315 27.5 25.6495 27.3683 25.8839 27.1339C26.1183 26.8995 26.25 26.5815 26.25 26.25V6.25C26.25 4.1825 24.5675 2.5 22.5 2.5H7.5C5.4325 2.5 3.75 4.1825 3.75 6.25V26.25C3.75 26.5815 3.8817 26.8995 4.11612 27.1339C4.35054 27.3683 4.66848 27.5 5 27.5ZM22.5 4.905C22.6642 4.905 22.8267 4.93733 22.9784 5.00015C23.13 5.06297 23.2678 5.15504 23.3839 5.27112C23.5 5.38719 23.592 5.52499 23.6549 5.67665C23.7177 5.8283 23.75 5.99085 23.75 6.155C23.75 6.31915 23.7177 6.4817 23.6549 6.63335C23.592 6.78501 23.5 6.92281 23.3839 7.03888C23.2678 7.15496 23.13 7.24703 22.9784 7.30985C22.8267 7.37267 22.6642 7.405 22.5 7.405C22.1685 7.405 21.8505 7.2733 21.6161 7.03888C21.3817 6.80446 21.25 6.48652 21.25 6.155C21.25 5.82348 21.3817 5.50554 21.6161 5.27112C21.8505 5.0367 22.1685 4.905 22.5 4.905ZM18.75 4.905C18.9142 4.905 19.0767 4.93733 19.2284 5.00015C19.38 5.06297 19.5178 5.15504 19.6339 5.27112C19.75 5.38719 19.842 5.52499 19.9049 5.67665C19.9677 5.8283 20 5.99085 20 6.155C20 6.31915 19.9677 6.4817 19.9049 6.63335C19.842 6.78501 19.75 6.92281 19.6339 7.03888C19.5178 7.15496 19.38 7.24703 19.2284 7.30985C19.0767 7.37267 18.9142 7.405 18.75 7.405C18.4185 7.405 18.1005 7.2733 17.8661 7.03888C17.6317 6.80446 17.5 6.48652 17.5 6.155C17.5 5.82348 17.6317 5.50554 17.8661 5.27112C18.1005 5.0367 18.4185 4.905 18.75 4.905ZM15 8.75C19.1362 8.75 22.5 12.1138 22.5 16.25C22.5 20.3862 19.1362 23.75 15 23.75C10.8637 23.75 7.5 20.3862 7.5 16.25C7.5 12.1138 10.8637 8.75 15 8.75Z" fill="#20173C"/>
<path d="M15.9576 21.1613C17.7063 20.8351 19.1713 19.5176 19.7363 17.8301C20.1454 16.6457 20.0768 15.3485 19.5451 14.2138C19.4868 14.089 19.3875 13.988 19.2638 13.9275C19.1401 13.867 18.9993 13.8507 18.8651 13.8813C18.1101 14.0676 17.5913 14.4413 16.9901 14.8826C16.0076 15.6038 14.7838 16.5001 12.5001 16.5001C11.4838 16.5001 10.6876 16.3176 10.0201 16.0576L10.0038 16.0688C9.97739 16.8212 10.121 17.57 10.4239 18.2592C10.7268 18.9485 11.1812 19.5606 11.7533 20.05C12.3255 20.5394 13.0006 20.8934 13.7285 21.0859C14.4564 21.2783 15.2183 21.3041 15.9576 21.1613Z" fill="#20173C"/>
</svg>
