<svg width="30" height="30" viewBox="0 0 30 30" fill="none" xmlns="http://www.w3.org/2000/svg">
<g clip-path="url(#clip0_405_607)">
<path d="M10.625 14.75V7.875H9.78C8.94858 7.87493 8.14072 8.15116 7.4834 8.66026C6.82609 9.16937 6.3566 9.88249 6.14875 10.6875L4.375 17.5625V17.875H13.75V19.695C13.75 21.245 13.75 22.25 14.4425 23.8262C14.4425 23.8262 15.2175 25.375 16.25 25.375M11.25 25.375H4.375C3.38044 25.375 2.42661 24.9799 1.72335 24.2767C1.02009 23.5734 0.625 22.6196 0.625 21.625V0.375C0.625 -0.619562 1.02009 -1.57339 1.72335 -2.27665C2.42661 -2.97991 3.38044 -3.375 4.375 -3.375H25.625C26.6196 -3.375 27.5734 -2.97991 28.2767 -2.27665C28.9799 -1.57339 29.375 -0.619562 29.375 0.375V21.625C29.375 22.6196 28.9799 23.5734 28.2767 24.2767C27.5734 24.9799 26.6196 25.375 25.625 25.375H20.625V14.125M15 14.125H26.25M10.4838 5.375C10.4838 5.375 8.9825 4.4375 8.9825 3.265C8.9943 2.83772 9.17232 2.4319 9.47871 2.13385C9.7851 1.8358 10.1957 1.66904 10.6231 1.66904C11.0506 1.66904 11.4611 1.8358 11.7675 2.13385C12.0739 2.4319 12.252 2.83772 12.2637 3.265C12.2625 4.4375 10.7662 5.375 10.7662 5.375H10.4838Z" stroke="#20173C" stroke-width="2"/>
</g>
<defs>
<clipPath id="clip0_405_607">
<rect width="30" height="30" fill="white"/>
</clipPath>
</defs>
</svg>
